# Blender v2.93.6 OBJ File: 'icons.blend'
# www.blender.org
mtllib coat.mtl
o bodyModel
v -4.277364 13.029989 -2.157881
v 4.248298 11.389857 -2.157881
v -4.277364 11.389874 -2.157881
v 4.190991 -0.345155 -2.052193
v -4.220058 13.063546 -2.052191
v 4.190991 13.063546 -2.052191
v -4.220058 13.063546 2.484238
v 4.190991 13.063546 2.484238
v 4.190991 -0.345155 2.484236
v -4.220058 -0.345155 -2.052193
v 4.248298 13.029989 -2.157881
v -4.220058 -0.345155 2.484236
v -0.014533 1.296961 2.851340
v 4.283872 -0.404179 2.464373
v 4.547221 1.296961 2.523164
v 4.283872 -0.404179 -2.091120
v 4.547221 1.296962 -2.825626
v 3.184679 -0.404179 -2.811083
v 4.376269 13.060778 2.591546
v 0.527925 18.993771 2.723904
v -0.014533 13.060778 2.726639
v 1.989569 1.296962 -3.271084
v 4.517951 2.998119 -2.958835
v 1.999076 8.101522 -3.003082
v 4.342396 8.101522 -2.759830
v 4.517951 2.998118 2.523164
v 4.342396 8.101522 2.523164
v -0.014533 2.998118 2.982847
v -0.014533 8.101522 2.860931
v 4.376269 13.060778 -2.374597
v 2.460995 13.060778 -2.763866
v 1.585823 2.998119 -3.588920
v 4.342396 18.993771 -2.122339
v 4.342396 18.993771 2.562626
v 2.692138 18.289150 -2.818136
v -4.312939 -0.404179 2.464373
v -0.014533 -0.404179 2.719832
v -4.576288 1.296961 2.523164
v -4.312939 -0.404179 -2.091120
v -3.213745 -0.404179 -2.811083
v -0.556992 18.993771 2.723904
v -4.405337 13.060778 2.591546
v -4.576288 1.296962 -2.825626
v -2.028142 8.101522 -3.003082
v -4.547018 2.998119 -2.958835
v -4.371463 8.101522 -2.759830
v -4.547018 2.998118 2.523164
v -4.371463 8.101522 2.523164
v -4.405337 13.060778 -2.374597
v -2.490062 13.060778 -2.763866
v -2.018636 1.296962 -3.271084
v -4.371463 18.993771 -2.122339
v -2.721205 18.289150 -2.818136
v -4.371463 18.993771 2.562626
v -1.614890 2.998119 -3.588920
vt 0.103000 0.697400
vt 0.220700 0.757400
vt 0.094200 0.732500
vt 0.968800 0.777100
vt 0.863800 0.603500
vt 0.975700 0.608100
vt 0.863800 0.603500
vt 0.975700 0.608100
vt 0.968800 0.777100
vt 0.856900 0.772500
vt 0.229500 0.722300
vt 0.856900 0.772500
vt 0.328700 0.609500
vt 0.254200 0.667100
vt 0.245600 0.609500
vt 0.245900 0.611100
vt 0.176100 0.667000
vt 0.163500 0.611100
vt 0.519600 0.568300
vt 0.365000 0.583300
vt 0.386100 0.568300
vt 0.225700 0.211400
vt 0.319800 0.003900
vt 0.320500 0.211400
vt 0.163400 0.611800
vt 0.108100 0.659900
vt 0.095900 0.601700
vt 0.173700 0.556800
vt 0.042900 0.370400
vt 0.098200 0.379200
vt 0.242000 0.553000
vt 0.098700 0.380000
vt 0.243700 0.380000
vt 0.324500 0.551900
vt 0.243500 0.380100
vt 0.316200 0.379200
vt 0.064600 0.215900
vt 0.225000 0.212700
vt 0.017500 0.208000
vt 0.064600 0.216400
vt 0.087600 0.556000
vt 0.173000 0.555300
vt 0.242300 0.551900
vt 0.046400 0.005700
vt 0.206800 0.003700
vt 0.005000 0.015100
vt 0.043600 0.006900
vt 0.254200 0.667100
vt 0.328700 0.667100
vt 0.245900 0.611100
vt 0.176100 0.667000
vt 0.253900 0.666600
vt 0.365000 0.583300
vt 0.519600 0.568300
vt 0.386100 0.568300
vt 0.319800 0.003900
vt 0.225700 0.211400
vt 0.163400 0.611800
vt 0.108100 0.659900
vt 0.174300 0.666900
vt 0.042900 0.370400
vt 0.173700 0.556800
vt 0.098200 0.379200
vt 0.098700 0.380000
vt 0.242000 0.553000
vt 0.243700 0.380000
vt 0.243500 0.380100
vt 0.064600 0.215900
vt 0.225000 0.212700
vt 0.017500 0.208000
vt 0.064600 0.216400
vt 0.095900 0.601700
vt 0.163500 0.611100
vt 0.242300 0.551900
vt 0.046400 0.005700
vt 0.005000 0.015100
vt 0.253900 0.666600
vt 0.527100 0.626800
vt 0.207100 0.003900
vt 0.174300 0.666900
vt 0.245600 0.609500
vt 0.207100 0.003900
vt 0.087600 0.556000
vt 0.173000 0.555300
vt 0.206800 0.003700
vt 0.043600 0.006900
vn -0.0000 0.0000 -1.0000
vn 0.0000 1.0000 0.0000
vn 0.0000 -1.0000 -0.0000
vn 0.0000 -0.0644 0.9979
vn 0.5470 -0.6308 0.5504
vn 0.7428 -0.0609 0.6668
vn 0.6369 -0.7233 -0.2667
vn 0.7668 -0.1423 -0.6259
vn 0.2414 -0.6986 -0.6736
vn 0.7179 -0.0051 0.6961
vn 0.0376 0.0021 0.9993
vn 0.0000 0.0014 1.0000
vn 0.1874 -0.1237 -0.9745
vn 0.7592 0.0105 -0.6507
vn 0.1219 0.0497 -0.9913
vn 0.7382 0.0399 -0.6734
vn 0.7396 0.0130 0.6729
vn 0.7294 0.0170 0.6839
vn 0.0000 -0.0321 0.9995
vn 0.0000 0.0255 0.9997
vn 0.7848 0.0209 -0.6194
vn 0.1855 0.0248 -0.9823
vn 0.2101 -0.0120 -0.9776
vn 0.8817 0.0251 -0.4712
vn 0.7217 0.0075 0.6921
vn 0.3423 0.0306 -0.9391
vn -0.5470 -0.6308 0.5504
vn 0.0000 -0.5772 0.8166
vn -0.7428 -0.0609 0.6668
vn -0.6369 -0.7233 -0.2667
vn -0.2414 -0.6986 -0.6736
vn -0.0376 0.0021 0.9993
vn -0.7179 -0.0051 0.6961
vn -0.7668 -0.1423 -0.6259
vn -0.1219 0.0497 -0.9913
vn -0.7592 0.0105 -0.6507
vn -0.7382 0.0399 -0.6734
vn -0.7396 0.0130 0.6729
vn -0.7294 0.0170 0.6839
vn -0.7848 0.0209 -0.6194
vn -0.1855 0.0248 -0.9823
vn -0.1874 -0.1237 -0.9745
vn -0.8817 0.0251 -0.4712
vn -0.3423 0.0306 -0.9391
vn -0.7217 0.0075 0.6921
vn -0.2101 -0.0120 -0.9776
usemtl Default_OBJ.002
s off
f 1/1/1 2/2/1 3/3/1
f 4/4/1 5/5/1 6/6/1
f 6/6/2 7/7/2 8/8/2
f 9/9/3 10/10/3 4/4/3
f 1/1/1 11/11/1 2/2/1
f 4/4/1 10/10/1 5/5/1
f 6/6/2 5/5/2 7/7/2
f 9/9/3 12/12/3 10/10/3
s 1
f 13/13/4 14/14/5 15/15/6
f 15/16/6 16/17/7 17/18/8
f 14/19/5 18/20/9 16/21/7
f 19/22/10 20/23/11 21/24/12
f 17/25/8 18/26/9 22/27/13
f 23/28/14 24/29/15 25/30/16
f 26/31/17 25/32/16 27/33/18
f 28/34/19 27/35/18 29/36/20
f 21/24/12 27/35/18 19/22/10
f 27/33/18 30/37/21 19/38/10
f 25/30/16 31/39/22 30/40/21
f 23/28/14 22/27/13 32/41/23
f 26/31/17 17/18/8 23/42/14
f 13/13/4 26/43/17 28/34/19
f 19/38/10 33/44/24 34/45/25
f 30/40/21 35/46/26 33/47/24
f 13/13/4 36/48/27 37/49/28
f 38/50/29 39/51/30 36/52/27
f 40/53/31 36/54/27 39/55/30
f 41/56/32 42/57/33 21/24/12
f 43/58/34 40/59/31 39/60/30
f 44/61/35 45/62/36 46/63/37
f 46/64/37 47/65/38 48/66/39
f 48/67/39 28/34/19 29/36/20
f 21/24/12 48/67/39 29/36/20
f 49/68/40 48/66/39 42/69/33
f 50/70/41 46/63/37 49/71/40
f 45/62/36 51/72/42 43/58/34
f 47/65/38 43/73/34 38/50/29
f 47/74/38 13/13/4 28/34/19
f 42/69/33 52/75/43 49/68/40
f 49/71/40 53/76/44 50/70/41
f 13/13/4 37/49/28 14/14/5
f 15/16/6 14/77/5 16/17/7
f 14/19/5 37/78/28 18/20/9
f 19/22/10 34/79/25 20/23/11
f 17/25/8 16/80/7 18/26/9
f 23/28/14 32/41/23 24/29/15
f 26/31/17 23/42/14 25/32/16
f 28/34/19 26/43/17 27/35/18
f 21/24/12 29/36/20 27/35/18
f 27/33/18 25/32/16 30/37/21
f 25/30/16 24/29/15 31/39/22
f 23/28/14 17/25/8 22/27/13
f 26/31/17 15/16/6 17/18/8
f 13/13/4 15/15/6 26/43/17
f 19/38/10 30/37/21 33/44/24
f 30/40/21 31/39/22 35/46/26
f 13/13/4 38/81/29 36/48/27
f 38/50/29 43/73/34 39/51/30
f 40/53/31 37/78/28 36/54/27
f 41/56/32 54/82/45 42/57/33
f 43/58/34 51/72/42 40/59/31
f 44/61/35 55/83/46 45/62/36
f 46/64/37 45/84/36 47/65/38
f 48/67/39 47/74/38 28/34/19
f 21/24/12 42/57/33 48/67/39
f 49/68/40 46/64/37 48/66/39
f 50/70/41 44/61/35 46/63/37
f 45/62/36 55/83/46 51/72/42
f 47/65/38 45/84/36 43/73/34
f 47/74/38 38/81/29 13/13/4
f 42/69/33 54/85/45 52/75/43
f 49/71/40 52/86/43 53/76/44
o headModel
v -0.017362 -3.181711 6.028018
v 4.334466 -8.339327 4.818597
v 4.694467 -3.181711 5.134272
v 4.754991 -3.181710 -3.950692
v 2.517161 -6.636344 -5.152982
v 3.219404 -2.982041 -4.924078
v 5.455690 -3.181710 -0.258257
v 4.348438 -8.376166 -3.732654
v 5.132919 0.337133 -0.523542
v 5.253678 -0.978123 -3.852427
v 4.821235 0.337133 -3.781548
v 4.197443 -0.443545 -4.643903
v 2.947040 0.532167 -4.114284
v -0.017362 -0.978124 5.700394
v 4.557529 0.337132 4.837002
v -0.017362 0.337132 4.980171
v 5.933971 -0.978123 -0.247850
v 4.913948 -0.978124 5.190738
v -0.017362 -8.747524 -4.005766
v -0.017362 -6.663424 -5.262621
v -0.017362 -9.436730 2.525337
v 4.491709 -8.667138 2.116917
v -0.017362 -9.519375 -0.584763
v 4.845224 0.337133 2.290765
v 1.205962 0.380102 1.687973
v -0.017362 0.393684 2.555948
v 5.423959 -0.978123 2.575693
v 5.075078 -3.181710 2.488633
v 4.648951 -8.740396 -0.584763
v -4.369190 -8.339327 4.818597
v -0.017362 -8.831699 5.135052
v -4.789715 -3.181710 -3.950692
v -2.850989 -5.878942 -5.483493
v -4.383162 -8.376166 -3.732654
v -5.490414 -3.181710 -0.258257
v -4.683675 -8.740396 -0.584763
v -5.167644 0.337133 -0.523542
v -5.288403 -0.978123 -3.852427
v -5.968695 -0.978123 -0.247850
v -4.855959 0.337133 -3.781548
v -4.232167 -0.443545 -4.643903
v -4.592253 0.337132 4.837002
v -4.729191 -3.181711 5.134272
v -4.526433 -8.667138 2.116917
v -4.879949 0.337133 2.290765
v -1.240687 0.380102 1.687973
v -5.458683 -0.978123 2.575693
v -5.109803 -3.181710 2.488633
v -2.981765 0.532167 -4.114284
v -4.948672 -0.978124 5.190738
v -3.254129 -2.982041 -4.924078
vt 0.102400 0.984700
vt 0.183600 0.938800
vt 0.104700 0.938100
vt 0.105400 0.815600
vt 0.182400 0.773000
vt 0.104500 0.760500
vt 0.104200 0.876600
vt 0.184200 0.815600
vt 0.106000 0.815600
vt 0.030100 0.876600
vt 0.053900 0.815600
vt 0.024600 0.815600
vt 0.023300 0.815600
vt 0.054200 0.754800
vt 0.023000 0.754600
vt 0.055800 0.983400
vt 0.027800 0.938900
vt 0.030200 0.982000
vt 0.053700 0.876600
vt 0.053500 0.815600
vt 0.052600 0.938700
vt 0.225900 0.815600
vt 0.225100 0.769400
vt 0.181700 0.938500
vt 0.226300 0.904900
vt 0.183300 0.904900
vt 0.226400 0.876600
vt 0.225500 0.815600
vt 0.029300 0.904900
vt 0.070600 0.876600
vt 0.065000 0.904900
vt 0.053100 0.904900
vt 0.104400 0.904900
vt 0.074800 0.815600
vt 0.104400 0.938500
vt 0.028900 0.938500
vt 0.052300 0.938500
vt 0.062900 0.938500
vt 0.182700 0.876600
vt 0.183600 0.938800
vt 0.160700 0.989900
vt 0.105400 0.815600
vt 0.182400 0.773000
vt 0.184400 0.815600
vt 0.104200 0.876600
vt 0.184200 0.815600
vt 0.182700 0.876600
vt 0.030100 0.876600
vt 0.053900 0.815600
vt 0.053700 0.876600
vt 0.023300 0.815600
vt 0.054200 0.754800
vt 0.053500 0.815600
vt 0.027800 0.938900
vt 0.104700 0.938100
vt 0.181700 0.938500
vt 0.183300 0.904900
vt 0.029300 0.904900
vt 0.069500 0.876600
vt 0.053100 0.904900
vt 0.104400 0.904900
vt 0.073700 0.815600
vt 0.104400 0.938500
vt 0.028900 0.938500
vt 0.052300 0.938500
vt 0.063800 0.904900
vt 0.184400 0.815600
vt 0.221100 0.938500
vt 0.104500 0.760500
vt 0.106000 0.815600
vt 0.024600 0.815600
vt 0.023000 0.754600
vt 0.052600 0.938700
vt 0.061800 0.938500
vn 0.0000 0.0177 0.9998
vn 0.6030 -0.5473 0.5804
vn 0.6967 -0.0810 0.7128
vn 0.8111 -0.1221 -0.5720
vn 0.3232 -0.3441 -0.8815
vn 0.5269 -0.0750 -0.8466
vn 0.9872 -0.1590 -0.0150
vn 0.6221 -0.6009 -0.5020
vn 0.5408 0.8410 -0.0164
vn 0.8730 0.0594 -0.4842
vn 0.5797 0.7237 -0.3744
vn 0.4934 0.2745 -0.8254
vn 0.1169 0.9654 -0.2333
vn 0.0000 0.2731 0.9620
vn 0.4613 0.7289 0.5059
vn 0.0000 0.8499 0.5269
vn 0.9889 0.1486 -0.0073
vn 0.6790 0.1279 0.7230
vn -0.0050 -0.8162 -0.5777
vn -0.0217 -0.5163 -0.8561
vn 0.0000 -0.9935 0.1140
vn 0.7117 -0.6959 0.0957
vn 0.0000 -0.9970 -0.0770
vn 0.5297 0.8451 0.0724
vn 0.0155 0.9998 0.0079
vn -0.0000 0.9999 0.0123
vn 0.9794 0.1278 0.1566
vn 0.9825 -0.1303 0.1332
vn 0.7153 -0.6975 -0.0440
vn -0.6030 -0.5473 0.5804
vn -0.0000 -0.6895 0.7243
vn -0.8249 -0.1010 -0.5562
vn -0.4330 -0.2806 -0.8566
vn -0.6183 -0.6137 -0.4910
vn -0.9872 -0.1590 -0.0150
vn -0.7153 -0.6975 -0.0440
vn -0.5408 0.8410 -0.0164
vn -0.8730 0.0594 -0.4842
vn -0.9889 0.1486 -0.0073
vn -0.5797 0.7237 -0.3744
vn -0.4934 0.2745 -0.8254
vn -0.4613 0.7289 0.5059
vn -0.6967 -0.0810 0.7128
vn -0.7117 -0.6959 0.0957
vn -0.5297 0.8451 0.0724
vn -0.0155 0.9998 0.0079
vn -0.9794 0.1278 0.1566
vn -0.9825 -0.1303 0.1332
vn -0.1169 0.9654 -0.2333
vn -0.6790 0.1279 0.7230
vn -0.5355 0.0010 -0.8446
usemtl Default_OBJ.002
s 1
f 56/87/47 57/88/48 58/89/49
f 59/90/50 60/91/51 61/92/52
f 62/93/53 63/94/54 59/95/50
f 64/96/55 65/97/56 66/98/57
f 66/99/57 67/100/58 68/101/59
f 69/102/60 70/103/61 71/104/62
f 62/93/53 65/97/56 72/105/63
f 59/90/50 67/100/58 65/106/56
f 69/102/60 58/89/49 73/107/64
f 60/91/51 74/108/65 75/109/66
f 57/110/48 76/111/67 77/112/68
f 63/94/54 78/113/69 74/114/65
f 79/115/70 80/116/71 81/117/72
f 82/118/73 62/93/53 72/105/63
f 79/115/70 72/105/63 64/96/55
f 77/112/68 62/93/53 83/119/74
f 68/120/59 64/96/55 66/98/57
f 57/110/48 83/119/74 58/121/49
f 70/122/61 82/118/73 79/115/70
f 58/121/49 82/118/73 73/123/64
f 70/122/61 81/117/72 71/124/62
f 77/112/68 78/113/69 84/125/75
f 56/87/47 85/126/76 86/127/77
f 87/128/78 88/129/79 89/130/80
f 90/131/81 89/132/80 91/133/82
f 92/134/83 93/135/84 94/136/85
f 95/137/86 96/138/87 93/139/84
f 97/140/88 69/102/60 71/104/62
f 93/135/84 90/131/81 94/136/85
f 96/138/87 87/128/78 93/139/84
f 69/102/60 98/141/89 56/87/47
f 88/129/79 74/108/65 89/130/80
f 76/111/67 85/142/76 99/143/90
f 89/132/80 78/113/69 91/133/82
f 100/144/91 101/145/92 92/134/83
f 102/146/93 90/131/81 103/147/94
f 100/144/91 94/136/85 102/146/93
f 90/131/81 99/143/90 103/147/94
f 104/148/95 92/134/83 101/145/92
f 103/147/94 85/142/76 98/149/89
f 97/150/88 102/146/93 105/151/96
f 102/146/93 98/149/89 105/151/96
f 97/150/88 81/152/72 100/144/91
f 78/113/69 99/143/90 91/133/82
f 56/87/47 86/127/77 57/88/48
f 59/90/50 63/153/54 60/91/51
f 62/93/53 84/125/75 63/94/54
f 64/96/55 72/105/63 65/97/56
f 66/99/57 65/106/56 67/100/58
f 69/102/60 73/107/64 70/103/61
f 62/93/53 59/95/50 65/97/56
f 59/90/50 61/92/52 67/100/58
f 69/102/60 56/87/47 58/89/49
f 60/91/51 63/153/54 74/108/65
f 57/110/48 86/154/77 76/111/67
f 63/94/54 84/125/75 78/113/69
f 79/115/70 64/96/55 80/116/71
f 82/118/73 83/119/74 62/93/53
f 79/115/70 82/118/73 72/105/63
f 77/112/68 84/125/75 62/93/53
f 68/120/59 80/116/71 64/96/55
f 57/110/48 77/112/68 83/119/74
f 70/122/61 73/123/64 82/118/73
f 58/121/49 83/119/74 82/118/73
f 70/122/61 79/115/70 81/117/72
f 77/112/68 76/111/67 78/113/69
f 56/87/47 98/141/89 85/126/76
f 87/128/78 106/155/97 88/129/79
f 90/131/81 87/156/78 89/132/80
f 92/134/83 95/157/86 93/135/84
f 95/137/86 104/158/95 96/138/87
f 97/140/88 105/159/96 69/102/60
f 93/135/84 87/156/78 90/131/81
f 96/138/87 106/155/97 87/128/78
f 69/102/60 105/159/96 98/141/89
f 88/129/79 75/109/66 74/108/65
f 76/111/67 86/154/77 85/142/76
f 89/132/80 74/114/65 78/113/69
f 100/144/91 81/152/72 101/145/92
f 102/146/93 94/136/85 90/131/81
f 100/144/91 92/134/83 94/136/85
f 90/131/81 91/133/82 99/143/90
f 104/148/95 95/157/86 92/134/83
f 103/147/94 99/143/90 85/142/76
f 97/150/88 100/144/91 102/146/93
f 102/146/93 103/147/94 98/149/89
f 97/150/88 71/160/62 81/152/72
f 78/113/69 76/111/67 99/143/90
o rightArmModel
v -8.198316 -0.176557 2.177172
v -3.801842 11.231932 2.177173
v -8.198316 11.231932 2.177173
v -3.801842 -0.291601 2.177172
v -3.801842 11.231932 -2.177171
v -8.198316 -0.176557 -2.177172
v -8.198316 11.231932 -2.177171
v -3.801842 -0.291600 -2.177172
vt 0.708500 0.125300
vt 0.987000 0.050800
vt 0.986500 0.125300
vt 0.722700 0.034900
vt 0.988500 0.125900
vt 0.985200 0.050400
vt 0.725400 0.202100
vt 0.994300 0.195300
vt 0.757300 0.235100
vt 0.712600 0.183600
vt 0.707900 0.231000
vt 0.722300 0.035100
vt 0.708900 0.126000
vt 0.761900 0.187700
vn -0.5841 -0.5691 0.5787
vn 0.7071 -0.0000 0.7071
vn -0.7071 -0.0000 0.7071
vn 0.5704 -0.5855 0.5760
vn 0.7071 0.0000 -0.7071
vn -0.5841 -0.5691 -0.5787
vn -0.7071 0.0000 -0.7071
vn 0.5704 -0.5855 -0.5760
usemtl Default_OBJ.002
s 1
f 107/161/98 108/162/99 109/163/100
f 110/164/101 111/165/102 108/166/99
f 111/165/102 112/167/103 113/168/104
f 112/167/103 109/163/100 113/168/104
f 110/169/101 112/170/103 114/171/105
f 107/161/98 110/172/101 108/162/99
f 110/164/101 114/173/105 111/165/102
f 111/165/102 114/173/105 112/167/103
f 112/167/103 107/161/98 109/163/100
f 110/169/101 107/174/98 112/170/103
o leftArmModel
v 8.198316 -0.176557 2.177172
v 3.801842 11.231932 2.177173
v 8.198316 11.231932 2.177173
v 3.801842 -0.291601 2.177172
v 3.801842 11.231932 -2.177171
v 8.198316 -0.176557 -2.177172
v 8.198316 11.231932 -2.177171
v 3.801842 -0.291600 -2.177172
vt 0.708500 0.125300
vt 0.986500 0.125300
vt 0.987000 0.050800
vt 0.722700 0.034900
vt 0.985200 0.050400
vt 0.988500 0.125900
vt 0.994300 0.195300
vt 0.725400 0.202100
vt 0.757300 0.235100
vt 0.707900 0.231000
vt 0.712600 0.183600
vt 0.722300 0.035100
vt 0.708900 0.126000
vt 0.761900 0.187700
vn 0.5841 -0.5691 0.5787
vn 0.7071 -0.0000 0.7071
vn -0.7071 -0.0000 0.7071
vn -0.5704 -0.5855 0.5760
vn -0.7071 0.0000 -0.7071
vn 0.7071 0.0000 -0.7071
vn 0.5841 -0.5691 -0.5787
vn -0.5704 -0.5855 -0.5760
usemtl Default_OBJ.002
s 1
f 115/175/106 117/176/107 116/177/108
f 118/178/109 116/179/108 119/180/110
f 119/180/110 121/181/111 120/182/112
f 120/182/112 121/181/111 117/176/107
f 118/183/109 122/184/113 120/185/112
f 115/175/106 116/177/108 118/186/109
f 118/178/109 119/180/110 122/187/113
f 119/180/110 120/182/112 122/187/113
f 120/182/112 117/176/107 115/175/106
f 118/183/109 120/185/112 115/188/106
o leftLegModel
v 4.249735 11.567349 2.162229
v 4.249735 24.234459 2.162230
v -0.152759 24.234459 2.162230
v -0.152759 11.567349 2.162229
v -0.152759 24.234459 -2.162227
v -0.152759 11.567350 -2.162229
v 4.249735 24.234459 -2.162227
v 4.249735 11.567350 -2.162229
v 0.384512 17.344778 2.332914
v -0.086380 11.541883 2.411468
v 4.298852 11.541883 2.276358
v 4.298852 11.541883 -2.384249
v 4.302905 17.344780 -2.275756
v 2.433796 11.541883 -2.584787
v 2.669109 16.677368 -2.982128
v 4.302905 17.344778 2.309414
vt 0.916000 0.514300
vt 0.916000 0.272400
vt 0.998600 0.272400
vt 0.668300 0.514300
vt 0.668300 0.272400
vt 0.750900 0.272400
vt 0.750900 0.514300
vt 0.833400 0.272400
vt 0.833400 0.514300
vt 0.998600 0.596900
vt 0.916000 0.596900
vt 0.916000 0.514400
vt 0.915900 0.596900
vt 0.833300 0.596900
vt 0.833300 0.514400
vt 0.998600 0.514300
vt 0.998600 0.514400
vt 0.915900 0.514400
vt 0.658300 0.003900
vt 0.662400 0.211400
vt 0.586000 0.211400
vt 0.585400 0.212700
vt 0.462300 0.215900
vt 0.448300 0.005700
vt 0.462300 0.216400
vt 0.426200 0.208000
vt 0.416500 0.015100
vt 0.585800 0.213600
vt 0.588700 0.336100
vt 0.458400 0.265700
vt 0.571700 0.003900
vt 0.571500 0.003700
vt 0.446100 0.006900
vt 0.462700 0.213600
vn 0.0000 -0.0000 1.0000
vn -1.0000 0.0000 0.0000
vn 0.0000 0.0000 -1.0000
vn 1.0000 0.0000 0.0000
vn 0.0000 1.0000 0.0000
vn 0.0000 -1.0000 0.0000
vn 0.0161 0.0011 0.9999
vn 0.0251 -0.5785 0.8153
vn 0.5838 -0.5785 0.5696
vn 0.6103 -0.5967 -0.5210
vn 0.8807 0.0082 -0.4736
vn 0.0638 -0.8025 -0.5932
vn 0.3421 -0.0008 -0.9397
vn 0.7081 -0.0045 0.7061
usemtl Default_OBJ.002
s off
f 123/189/114 124/190/114 125/191/114
f 126/192/115 125/193/115 127/194/115
f 128/195/116 127/194/116 129/196/116
f 130/197/117 129/196/117 124/190/117
f 127/198/118 125/199/118 124/200/118
f 126/201/119 128/202/119 130/203/119
f 123/189/114 125/191/114 126/204/114
f 126/192/115 127/194/115 128/195/115
f 128/195/116 129/196/116 130/197/116
f 130/197/117 124/190/117 123/189/117
f 127/198/118 124/200/118 129/205/118
f 126/201/119 130/203/119 123/206/119
s 1
f 131/207/120 132/208/121 133/209/122
f 133/210/122 134/211/123 135/212/124
f 134/213/123 136/214/125 137/215/126
f 133/216/122 132/217/121 136/218/125
f 131/207/120 133/209/122 138/219/127
f 133/210/122 135/212/124 138/220/127
f 134/213/123 137/215/126 135/221/124
f 133/216/122 136/218/125 134/222/123
o rightLegModel
v -4.249736 11.567349 2.162229
v -4.249736 24.234459 2.162230
v 0.152758 24.234459 2.162230
v 0.152758 11.567349 2.162229
v 0.152758 24.234459 -2.162227
v 0.152758 11.567350 -2.162229
v -4.249736 24.234459 -2.162227
v -4.249736 11.567350 -2.162229
v -0.384513 17.344778 2.332914
v 0.086379 11.541883 2.411468
v -4.298854 11.541883 2.276358
v -4.298854 11.541883 -2.384249
v -4.302907 17.344780 -2.275756
v -2.433797 11.541883 -2.584787
v -2.669110 16.677368 -2.982128
v -4.302907 17.344778 2.309414
vt 0.916000 0.514300
vt 0.998600 0.272400
vt 0.916000 0.272400
vt 0.668300 0.514300
vt 0.750900 0.272400
vt 0.668300 0.272400
vt 0.750900 0.514300
vt 0.833400 0.272400
vt 0.833400 0.514300
vt 0.998600 0.596900
vt 0.916000 0.514400
vt 0.916000 0.596900
vt 0.915900 0.596900
vt 0.833300 0.514400
vt 0.833300 0.596900
vt 0.998600 0.514300
vt 0.998600 0.514400
vt 0.915900 0.514400
vt 0.658300 0.003900
vt 0.586000 0.211400
vt 0.662400 0.211400
vt 0.585400 0.212700
vt 0.448300 0.005700
vt 0.462300 0.215900
vt 0.462300 0.216400
vt 0.416500 0.015100
vt 0.426200 0.208000
vt 0.585800 0.213600
vt 0.458400 0.265700
vt 0.588700 0.336100
vt 0.571700 0.003900
vt 0.571500 0.003700
vt 0.446100 0.006900
vt 0.462700 0.213600
vn 0.0000 -0.0000 1.0000
vn 1.0000 0.0000 0.0000
vn 0.0000 0.0000 -1.0000
vn -1.0000 0.0000 0.0000
vn 0.0000 1.0000 0.0000
vn 0.0000 -1.0000 0.0000
vn -0.0161 0.0011 0.9999
vn -0.5838 -0.5785 0.5696
vn -0.0251 -0.5785 0.8153
vn -0.8807 0.0082 -0.4736
vn -0.6103 -0.5967 -0.5210
vn -0.3421 -0.0008 -0.9397
vn -0.0638 -0.8025 -0.5932
vn -0.7081 -0.0045 0.7061
usemtl Default_OBJ.002
s off
f 139/223/128 141/224/128 140/225/128
f 142/226/129 143/227/129 141/228/129
f 144/229/130 145/230/130 143/227/130
f 146/231/131 140/225/131 145/230/131
f 143/232/132 140/233/132 141/234/132
f 142/235/133 146/236/133 144/237/133
f 139/223/128 142/238/128 141/224/128
f 142/226/129 144/229/129 143/227/129
f 144/229/130 146/231/130 145/230/130
f 146/231/131 139/223/131 140/225/131
f 143/232/132 145/239/132 140/233/132
f 142/235/133 139/240/133 146/236/133
s 1
f 147/241/134 149/242/135 148/243/136
f 149/244/135 151/245/137 150/246/138
f 150/247/138 153/248/139 152/249/140
f 149/250/135 152/251/140 148/252/136
f 147/241/134 154/253/141 149/242/135
f 149/244/135 154/254/141 151/245/137
f 150/247/138 151/255/137 153/248/139
f 149/250/135 150/256/138 152/251/140
