# Blender v3.6.10 OBJ File: ''
# www.blender.org
o backpackModel
v 0.143639 11.698767 -4.353322
v -2.006052 11.879314 -4.007194
v 0.148696 11.793598 -3.647739
v 2.358469 11.883348 -3.994677
v 0.040179 -0.703197 -4.958844
v 2.402817 -0.279152 -5.628767
v 2.441972 -0.546165 -5.019593
v -2.031949 10.464231 -2.002894
v -2.729718 11.194059 -2.122651
v -2.881455 10.443039 -2.142671
v -3.427850 8.383257 -2.519283
v 3.346989 0.166466 -2.851618
v -3.601663 0.993038 -3.053913
v -3.210728 0.187038 -2.878849
v -3.190374 10.750586 -2.384175
v -2.346231 -0.301960 -2.735989
v 0.058585 -0.444866 -3.220906
v 2.455236 -0.300312 -2.721750
v -4.572966 1.631416 -3.674207
v -3.709827 0.733685 -4.356507
v -2.808623 -0.546890 -5.032364
v 3.339799 3.679199 -6.708923
v 3.660568 0.847561 -5.624306
v 3.320260 0.912704 -6.220023
v 2.460099 0.804646 -6.153131
v 3.410980 11.110216 -4.505761
v 3.279298 8.864767 -5.959744
v 3.173631 10.882280 -5.245679
v 2.407981 10.858906 -4.891974
v 4.256168 8.807281 -4.851534
v 4.427557 6.756767 -5.069930
v 4.105874 6.373044 -5.554038
v 4.077167 5.780343 -5.684376
v 4.406242 4.956463 -4.504401
v 4.335788 5.548974 -5.388048
v 4.727707 1.705116 -3.588033
v 3.774750 0.995533 -3.023158
v 3.815505 0.537437 -4.282214
v 4.041313 5.846158 -4.427074
v 4.650970 6.613010 -2.789331
v 3.748051 5.853565 -2.538972
v 4.114408 10.530607 -3.605980
v 3.395449 10.838217 -2.348421
v 4.063313 10.540882 -2.896024
v -2.304824 -0.279221 -5.642541
v 2.343678 10.461746 -1.990647
v 2.279155 11.286497 -2.066802
v 0.161770 11.255011 -2.063528
v 2.343084 11.636463 -2.455422
v 2.334466 11.584806 -4.301766
v 0.131529 11.091742 -4.803541
v 2.427136 8.942760 -5.829809
v 2.456974 6.203794 -6.885662
v -2.277641 6.240574 -7.203686
v 0.057603 3.643239 -7.423357
v 2.477117 3.640285 -6.765015
v -2.051577 10.863346 -5.160926
v 3.864036 3.688393 -2.641312
v -3.677509 5.904682 -2.594741
v -3.665327 3.698898 -2.671203
v 3.668280 8.378939 -2.490980
v 3.174548 10.438196 -2.124138
v 4.493650 8.565357 -3.058773
v -4.457386 5.562455 -3.719282
v -4.602465 7.012452 -3.313506
v -4.110534 10.456604 -2.927680
v -4.113050 10.826160 -4.369797
v -3.233958 11.119301 -3.421263
v -3.242300 11.156509 -4.600618
v -3.981380 5.991005 -4.673095
v -3.705805 6.103962 -6.249011
v -4.377436 5.733415 -5.976769
v -4.762194 5.588746 -5.650876
v -4.789418 5.285999 -4.641825
v -4.947868 3.443181 -5.643491
v -4.773602 1.518990 -5.317730
v -4.417311 1.172375 -5.739454
v -3.626856 0.865463 -5.877256
v 2.471984 -0.543453 -4.051656
v 4.745921 3.413944 -3.250879
v 4.340971 5.416740 -3.724382
v 3.948776 10.870543 -4.352108
v 4.438892 3.443115 -5.532753
v 3.699344 6.067224 -5.984077
v 4.219053 1.038185 -5.639709
v 4.506431 1.548737 -5.281796
v 3.426177 11.159800 -3.388656
v -2.833136 11.596689 -4.137746
v -2.730794 11.577261 -4.556500
v -1.994958 11.629202 -2.468327
v 3.142295 11.587326 -4.117848
v 3.126093 11.324568 -2.477595
v -4.401913 3.744175 -6.081442
v 4.055409 3.618835 -5.920395
v -3.239141 0.911514 -6.267082
v -3.257491 3.717743 -7.099883
v -2.344651 0.805981 -6.169645
v -4.794528 7.333275 -4.308725
v -4.620041 7.416150 -5.443350
v 0.044688 0.733868 -6.609929
v 3.376675 -0.153450 -4.135307
v 3.344764 -0.223278 -5.137004
v -4.953785 2.078144 -4.500049
v -3.193734 6.205613 -6.973491
v -3.068104 8.902020 -6.257946
v -3.696289 3.718019 -6.378842
v -2.801903 11.331547 -2.495717
v 3.052169 11.190016 -2.106352
v 3.212215 -0.232071 -5.462297
v -3.245752 -0.131691 -4.163356
v -3.325035 -0.200214 -5.166953
v 0.159795 11.581606 -2.462635
v 3.048361 11.447031 -4.539395
v 4.645708 6.945878 -4.219234
v 3.624825 3.702061 -6.128652
v -2.905564 10.895296 -5.283222
v 4.696027 2.008682 -4.460562
v -2.337056 3.678547 -7.091268
v 3.345037 6.154636 -6.530909
v -3.129651 -0.207764 -5.493557
v -2.169120 8.960957 -6.046978
v -3.469716 8.819052 -5.869888
v -1.955427 11.289402 -2.077914
v 3.545026 8.781702 -5.575648
v -1.970441 11.587717 -4.312912
vt 0.770495 0.051370
vt 0.601884 0.026326
vt 0.770723 0.013560
vt 0.979921 0.000733
vt 0.762491 0.997338
vt 0.995500 0.945700
vt 0.995500 0.997455
vt 0.598332 0.148403
vt 0.526543 0.077216
vt 0.509579 0.157290
vt 0.445049 0.111492
vt 0.634027 0.571468
vt 0.096992 0.541840
vt 0.044401 0.565468
vt 0.347257 0.506969
vt 0.279005 0.553702
vt 0.204681 0.532311
vt 0.566945 0.978673
vt 0.745160 0.992839
vt 0.929709 0.976974
vt 0.003216 0.518950
vt 0.045111 0.441972
vt 0.154318 0.516171
vt 0.029533 0.616711
vt 0.017328 0.571358
vt 0.270018 0.617147
vt 0.474845 0.708170
vt 0.413002 0.875674
vt 0.477534 0.849826
vt 0.531096 0.893371
vt 0.457206 0.121904
vt 0.493225 0.321886
vt 0.509322 0.155150
vt 0.560409 0.102007
vt 0.309804 0.315369
vt 0.286819 0.490287
vt 0.352785 0.511490
vt 0.238652 0.014133
vt 0.131850 0.075178
vt 0.226367 0.023499
vt 0.045111 0.441972
vt 0.003216 0.518950
vt 0.154318 0.516171
vt 0.156722 0.515549
vt 0.043905 0.442365
vt 0.003722 0.515426
vt 0.130696 0.075277
vt 0.001590 0.005086
vt 0.034491 0.026913
vt 0.578666 0.939545
vt 0.529482 0.997221
vt 0.979921 0.105387
vt 0.979921 0.054083
vt 0.770295 0.053966
vt 0.979921 0.002778
vt 0.979921 0.051487
vt 0.979921 0.102241
vt 0.769729 0.143069
vt 0.987711 0.316843
vt 0.995500 0.531445
vt 0.581177 0.522886
vt 0.764657 0.712425
vt 0.995500 0.712695
vt 0.995500 0.893944
vt 0.598558 0.146023
vt 0.170172 0.997087
vt 0.223383 0.538214
vt 0.175225 0.538992
vt 0.216354 0.990102
vt 0.260502 0.556479
vt 0.256041 0.988217
vt 0.273963 0.910249
vt 0.271436 0.960204
vt 0.276733 0.644053
vt 0.275336 0.591774
vt 0.509579 0.157290
vt 0.436729 0.325370
vt 0.458291 0.123949
vt 0.288119 0.490100
vt 0.419963 0.532486
vt 0.311083 0.316199
vt 0.334047 0.142298
vt 0.999288 0.957815
vt 0.584767 0.926025
vt 0.462252 0.928186
vt 1.032197 0.825127
vt 0.452759 0.850287
vt 1.029504 0.902842
vt 0.414473 0.705925
vt 0.278054 0.869147
vt 0.414176 0.877720
vt 0.419963 0.532486
vt 0.282059 0.536887
vt 0.436729 0.325370
vt 0.288119 0.490100
vt 0.334047 0.142298
vt 0.458291 0.123949
vt 0.222869 0.024716
vt 0.043905 0.442365
vt 0.034491 0.026913
vt 0.127803 0.003869
vt 0.001590 0.005086
vt 0.254015 0.002653
vt 0.126143 0.005424
vt 0.250937 0.004766
vt 0.238652 0.014133
vt 0.226367 0.023499
vt 0.131850 0.075178
vt 0.237030 0.233524
vt 0.034385 0.027581
vt 0.001350 0.006082
vt 0.247694 0.443549
vt 0.276556 0.478471
vt 0.305419 0.513392
vt 0.035430 0.818618
vt 0.125872 0.984784
vt 0.040917 0.963921
vt 0.225661 0.981548
vt 0.258851 0.816028
vt 0.055306 0.621859
vt 0.254160 0.617509
vt 0.533814 0.712156
vt 0.536532 0.530941
vt 0.548470 0.316474
vt 0.280056 0.703017
vt 0.282059 0.536887
vt 0.278054 0.869147
vt 0.414473 0.705925
vt 0.414176 0.877720
vt 0.039198 0.234639
vt 0.235167 0.234631
vt 0.222869 0.024716
vt 0.237030 0.233524
vt 0.039748 0.234776
vt 0.034385 0.027581
vt 0.001350 0.006082
vt 0.126143 0.005424
vt 0.250937 0.004766
vt 0.276556 0.478471
vt 0.247694 0.443549
vt 0.305419 0.513392
vt 0.278594 0.480109
vt 0.309723 0.515673
vt 0.247465 0.444545
vt 0.127803 0.003869
vt 0.238442 0.013685
vt 0.254015 0.002653
vt 0.513762 0.064858
vt 0.457206 0.121904
vt 0.457749 0.122926
vt 0.526449 0.074803
vt 0.601777 0.027987
vt 0.513762 0.064858
vt 0.457749 0.122926
vt 0.513977 0.066484
vt 0.561731 0.000499
vt 0.561415 0.002545
vt 0.347327 0.703236
vt 0.413002 0.875674
vt 0.344898 0.871428
vt 0.276795 0.867181
vt 0.278777 0.702288
vt 0.280759 0.537396
vt 0.349755 0.535044
vt 0.418752 0.532693
vt 0.347327 0.703236
vt 0.418752 0.532693
vt 0.349755 0.535044
vt 0.280759 0.537396
vt 0.278777 0.702288
vt 0.276795 0.867181
vt 0.344898 0.871428
vt 0.477534 0.849826
vt 0.474845 0.708170
vt 0.576054 0.858308
vt 0.144939 0.400262
vt 0.247465 0.444545
vt 0.309723 0.515673
vt 0.156722 0.515549
vt 0.003722 0.515426
vt 0.763537 0.861310
vt 0.149822 0.571278
vt 0.282316 0.571198
vt 0.294614 0.525249
vt 0.149869 0.525626
vt 0.005124 0.526004
vt 0.017328 0.571358
vt 0.029533 0.616711
vt 0.149775 0.616929
vt 0.270018 0.617147
vt 0.145388 0.399784
vt 0.480838 0.523422
vt 0.493225 0.321886
vt 0.413481 0.704943
vt 0.513977 0.066484
vt 0.526543 0.077216
vt 0.560669 0.053850
vt 0.559923 0.105154
vt 0.491193 0.922089
vt 0.471242 0.936448
vt 0.529482 0.997221
vt 0.530289 0.945296
vt 0.149822 0.571278
vt 0.005124 0.526004
vt 0.149869 0.525626
vt 0.294614 0.525249
vt 0.282316 0.571198
vt 0.770594 0.015232
vt 0.526449 0.074803
vt 0.561070 0.051253
vt 0.144939 0.400262
vt 0.413481 0.704943
vt 0.509322 0.155150
vt 0.145388 0.399784
vt 0.576782 0.711227
vt 0.480838 0.523422
vt 0.491193 0.922089
vt 0.471242 0.936448
vt 0.589564 0.317873
vt 0.435768 0.324454
vt 0.286819 0.490287
vt 0.332788 0.140451
vt 0.604544 0.059720
vt 0.435768 0.324454
vt 0.332788 0.140451
vt 0.604771 0.057170
vn 0.0133 0.7882 -0.6152
vn -0.0769 0.9685 -0.2369
vn 0.0045 0.9987 0.0499
vn 0.1213 0.9778 -0.1710
vn -0.0005 -0.9641 -0.2655
vn 0.1096 -0.7256 -0.6794
vn 0.1885 -0.9763 -0.1065
vn -0.0577 -0.0021 0.9983
vn -0.4783 0.4117 0.7757
vn -0.4669 0.0167 0.8841
vn -0.3502 -0.0370 0.9359
vn 0.3043 -0.0717 0.9499
vn -0.4876 -0.2556 0.8348
vn -0.5164 -0.4746 0.7128
vn -0.6720 0.4438 0.5928
vn -0.1419 -0.7643 0.6291
vn 0.0042 -0.9883 0.1523
vn 0.2263 -0.8604 0.4566
vn -0.8205 -0.2420 0.5180
vn -0.7173 -0.6927 0.0747
vn -0.3390 -0.9368 -0.0866
vn 0.5619 -0.0696 -0.8242
vn 0.7546 -0.3839 -0.5322
vn 0.4607 -0.3530 -0.8143
vn 0.1237 -0.3309 -0.9355
vn 0.7327 0.5564 -0.3919
vn 0.4751 0.2984 -0.8278
vn 0.2797 0.6045 -0.7459
vn -0.1270 0.5464 -0.8278
vn 0.9040 0.1746 -0.3904
vn 0.9285 -0.1901 -0.3191
vn 0.8237 -0.1502 -0.5467
vn 0.8024 0.5542 -0.2214
vn 0.8779 0.4788 0.0064
vn 0.8948 0.3505 -0.2766
vn 0.8493 -0.2742 0.4511
vn 0.6154 -0.3612 0.7006
vn 0.7756 -0.6311 -0.0085
vn 0.9817 -0.1586 -0.1059
vn 0.7634 -0.2186 0.6078
vn 0.5538 0.0677 0.8299
vn 0.8574 0.5128 0.0429
vn 0.7253 0.3538 0.5906
vn 0.8143 0.4755 0.3330
vn -0.1089 -0.7049 -0.7009
vn 0.0617 -0.0712 0.9956
vn 0.0377 0.3716 0.9276
vn -0.0024 0.5739 0.8189
vn 0.1379 0.8742 0.4657
vn -0.0316 0.6739 -0.7381
vn 0.0483 0.4606 -0.8863
vn -0.0692 0.3985 -0.9146
vn 0.1313 0.1873 -0.9735
vn -0.0208 0.1999 -0.9796
vn 0.0467 -0.1436 -0.9885
vn 0.1660 -0.1275 -0.9778
vn 0.1126 0.5899 -0.7996
vn 0.2679 -0.0718 0.9608
vn -0.5880 -0.0386 0.8079
vn -0.3633 -0.0768 0.9285
vn 0.1189 -0.0776 0.9899
vn 0.4241 -0.0046 0.9056
vn 0.9759 0.2062 0.0718
vn -0.8299 0.5011 0.2454
vn -0.9371 -0.1040 0.3331
vn -0.7215 0.4295 0.5430
vn -0.8273 0.5289 -0.1894
vn -0.5976 0.7849 0.1638
vn -0.6364 0.6597 -0.3997
vn -0.8155 0.5781 0.0262
vn -0.7771 0.0682 -0.6257
vn -0.6020 0.5853 -0.5431
vn -0.8228 0.4558 -0.3396
vn -0.9300 0.3143 0.1907
vn -0.9288 -0.0239 -0.3699
vn -0.8646 -0.4166 -0.2810
vn -0.6346 -0.5913 -0.4976
vn -0.7276 -0.4152 -0.5461
vn 0.2005 -0.9757 0.0883
vn 0.9302 -0.0269 0.3661
vn 0.6426 0.7288 -0.2365
vn 0.7409 0.5714 -0.3528
vn 0.9395 0.0446 -0.3397
vn 0.8077 0.0892 -0.5828
vn 0.6354 -0.5077 -0.5819
vn 0.9185 -0.2441 -0.3111
vn 0.7230 0.6828 0.1053
vn -0.5166 0.8558 0.0283
vn -0.1673 0.8380 -0.5194
vn -0.1427 0.9100 0.3892
vn 0.6153 0.7812 -0.1052
vn 0.5982 0.7674 0.2309
vn -0.5181 -0.0459 -0.8541
vn 0.5881 -0.0116 -0.8087
vn -0.3180 -0.4243 -0.8478
vn -0.4755 -0.1165 -0.8720
vn -0.0868 -0.3747 -0.9231
vn -0.9480 -0.3169 -0.0307
vn -0.8493 0.0492 -0.5256
vn 0.0021 -0.5050 -0.8631
vn 0.6875 -0.7226 0.0727
vn 0.6893 -0.7160 -0.1109
vn -0.9484 -0.2874 0.1343
vn -0.5685 0.1469 -0.8095
vn -0.3855 0.3580 -0.8504
vn -0.6533 -0.0545 -0.7551
vn -0.5933 0.7614 0.2613
vn 0.4063 0.4412 0.8002
vn 0.4362 -0.6896 -0.5781
vn -0.8106 -0.5752 0.1099
vn -0.7547 -0.6410 -0.1399
vn -0.0046 0.9302 0.3670
vn 0.1897 0.7825 -0.5930
vn 0.9834 -0.1301 -0.1261
vn 0.7017 -0.0480 -0.7108
vn -0.2954 0.6032 -0.7408
vn 0.9741 -0.1958 -0.1132
vn -0.0682 -0.1750 -0.9822
vn 0.6386 0.1140 -0.7611
vn -0.3883 -0.6625 -0.6406
vn 0.1539 0.3955 -0.9055
vn -0.5955 0.3065 -0.7426
vn -0.0528 0.4535 0.8897
vn 0.6983 0.2346 -0.6763
vn 0.0748 0.7406 -0.6678
s 1
f 1/1/1 2/2/2 3/3/3
f 4/4/4 1/1/1 3/3/3
f 5/5/5 6/6/6 7/7/7
f 8/8/8 9/9/9 10/10/10
f 9/9/9 11/11/11 10/10/10
f 12/12/12 13/13/13 14/14/14
f 9/15/9 15/16/15 11/17/11
f 16/18/16 17/19/17 18/20/18
f 13/21/13 19/22/19 20/23/20
f 16/24/16 14/25/14 21/26/21
f 22/27/22 23/28/23 24/29/24
f 25/30/25 22/27/22 24/29/24
f 26/31/26 27/32/27 28/33/28
f 27/32/27 29/34/29 28/33/28
f 30/35/30 31/36/31 32/37/32
f 33/38/33 34/39/34 35/40/35
f 36/41/36 37/42/37 38/43/38
f 39/44/39 40/45/40 41/46/41
f 42/47/42 43/48/43 44/49/44
f 45/50/45 5/5/5 21/51/21
f 8/8/8 46/52/46 47/53/47
f 48/54/48 8/8/8 47/53/47
f 48/54/48 47/53/47 49/55/49
f 1/1/1 4/4/4 50/56/50
f 29/57/29 1/1/1 50/56/50
f 51/58/51 1/1/1 29/57/29
f 51/58/51 29/57/29 52/59/52
f 51/58/51 52/59/52 53/60/53
f 51/58/51 53/60/53 54/61/54
f 55/62/55 54/61/54 53/60/53
f 55/62/55 53/60/53 56/63/56
f 55/62/55 56/63/56 25/64/25
f 51/58/51 57/65/57 1/1/1
f 58/66/58 59/67/59 60/68/60
f 58/66/58 41/69/41 59/67/59
f 11/70/11 59/67/59 41/69/41
f 11/70/11 41/69/41 61/71/61
f 11/70/11 61/71/61 46/72/46
f 62/73/62 46/72/46 61/71/61
f 8/74/8 11/70/11 46/72/46
f 8/74/8 10/75/10 11/70/11
f 62/76/62 61/77/61 43/78/43
f 61/77/61 40/79/40 43/78/43
f 61/77/61 41/80/41 40/79/40
f 43/78/43 40/79/40 63/81/63
f 43/78/43 63/81/63 44/82/44
f 12/83/12 16/18/16 18/20/18
f 12/83/12 14/84/14 16/18/16
f 13/85/13 58/86/58 60/87/60
f 58/86/58 13/85/13 37/88/37
f 12/83/12 37/88/37 13/85/13
f 60/89/60 19/90/19 13/91/13
f 60/89/60 59/92/59 19/90/19
f 19/90/19 59/92/59 64/93/64
f 11/94/11 65/95/65 59/92/59
f 11/94/11 66/96/66 65/95/65
f 11/94/11 15/97/15 66/96/66
f 67/98/67 65/99/65 66/100/66
f 68/101/68 67/98/67 66/100/66
f 68/101/68 66/100/66 15/102/15
f 68/101/68 69/103/69 67/98/67
f 70/104/70 71/105/71 72/106/72
f 70/104/70 72/106/72 73/107/73
f 74/108/74 70/104/70 73/107/73
f 74/108/74 73/107/73 75/109/75
f 74/108/74 64/110/64 70/104/70
f 74/108/74 19/22/19 64/110/64
f 64/110/64 59/111/59 70/104/70
f 20/23/20 76/112/76 77/113/77
f 20/23/20 77/113/77 78/114/78
f 17/115/17 79/116/79 18/117/18
f 7/118/7 79/116/79 17/115/17
f 17/115/17 5/119/5 7/118/7
f 5/119/5 17/115/17 16/120/16
f 21/121/21 5/119/5 16/120/16
f 22/27/22 25/30/25 56/122/56
f 53/123/53 22/27/22 56/122/56
f 27/32/27 53/123/53 52/124/52
f 29/34/29 27/32/27 52/124/52
f 41/80/41 80/125/80 81/126/81
f 41/80/41 36/127/36 80/125/80
f 58/128/58 36/127/36 41/80/41
f 58/128/58 37/129/37 36/127/36
f 42/47/42 44/49/44 63/130/63
f 30/131/30 42/47/42 63/130/63
f 30/131/30 82/132/82 42/47/42
f 34/39/34 83/133/83 35/40/35
f 80/134/80 83/133/83 34/39/34
f 80/134/80 34/39/34 81/135/81
f 41/136/41 81/135/81 34/39/34
f 41/136/41 34/39/34 39/137/39
f 39/137/39 34/39/34 33/38/33
f 39/137/39 33/38/33 84/138/84
f 38/43/38 85/139/85 86/140/86
f 85/139/85 38/43/38 23/141/23
f 32/142/32 39/44/39 84/143/84
f 32/142/32 31/144/31 39/44/39
f 87/145/87 82/146/82 26/147/26
f 87/145/87 42/47/42 82/146/82
f 87/145/87 43/48/43 42/47/42
f 88/148/88 69/149/69 68/150/68
f 89/151/89 69/149/69 88/148/88
f 89/151/89 88/148/88 2/2/2
f 90/152/90 2/2/2 88/148/88
f 90/152/90 3/3/3 2/2/2
f 91/153/91 87/154/87 26/31/26
f 92/155/92 87/154/87 91/153/91
f 92/155/92 91/153/91 4/156/4
f 92/155/92 4/156/4 49/157/49
f 92/155/92 43/78/43 87/154/87
f 93/158/93 78/159/78 77/160/77
f 93/158/93 77/160/77 76/161/76
f 93/158/93 76/161/76 75/162/75
f 93/158/93 75/162/75 73/163/73
f 93/158/93 73/163/73 72/164/72
f 93/158/93 72/164/72 71/165/71
f 94/166/94 84/167/84 33/168/33
f 94/166/94 33/168/33 35/169/35
f 94/166/94 35/169/35 83/170/83
f 94/166/94 83/170/83 86/171/86
f 94/166/94 86/171/86 85/172/85
f 94/166/94 85/172/85 23/28/23
f 95/173/95 96/174/96 97/175/97
f 95/173/95 78/159/78 96/174/96
f 98/176/98 67/98/67 99/177/99
f 98/176/98 99/177/99 71/178/71
f 98/176/98 71/178/71 70/179/70
f 98/176/98 70/179/70 59/180/59
f 98/176/98 59/180/59 65/99/65
f 98/176/98 65/99/65 67/98/67
f 100/181/100 45/50/45 97/175/97
f 100/181/100 97/175/97 55/62/55
f 100/181/100 55/62/55 25/64/25
f 100/181/100 25/64/25 6/6/6
f 100/181/100 6/6/6 5/5/5
f 100/181/100 5/5/5 45/50/45
f 101/182/101 102/183/102 23/184/23
f 101/182/101 23/184/23 38/185/38
f 101/182/101 38/185/38 37/186/37
f 101/182/101 37/186/37 12/187/12
f 101/182/101 12/187/12 18/188/18
f 101/182/101 18/188/18 79/189/79
f 101/182/101 79/189/79 7/190/7
f 101/182/101 7/190/7 102/183/102
f 103/191/103 75/109/75 76/112/76
f 103/191/103 76/112/76 20/23/20
f 103/191/103 20/23/20 19/22/19
f 103/191/103 19/22/19 74/108/74
f 103/191/103 74/108/74 75/109/75
f 104/192/104 96/174/96 71/165/71
f 104/192/104 71/165/71 105/193/105
f 104/192/104 105/193/105 54/61/54
f 104/192/104 54/61/54 96/174/96
f 106/194/106 96/174/96 78/159/78
f 106/194/106 78/159/78 93/158/93
f 106/194/106 93/158/93 71/165/71
f 106/194/106 71/165/71 96/174/96
f 107/195/107 9/9/9 90/152/90
f 107/195/107 90/152/90 88/148/88
f 107/195/107 88/148/88 68/150/68
f 107/195/107 68/150/68 15/97/15
f 107/195/107 15/97/15 9/9/9
f 108/196/108 43/78/43 92/155/92
f 108/196/108 92/155/92 49/157/49
f 108/196/108 49/157/49 47/197/47
f 108/196/108 47/197/47 46/198/46
f 108/196/108 46/198/46 62/76/62
f 108/196/108 62/76/62 43/78/43
f 109/199/109 23/28/23 102/200/102
f 109/199/109 102/200/102 7/201/7
f 109/199/109 7/201/7 6/202/6
f 109/199/109 6/202/6 25/30/25
f 109/199/109 25/30/25 24/29/24
f 109/199/109 24/29/24 23/28/23
f 110/203/110 21/26/21 14/25/14
f 110/203/110 14/25/14 13/204/13
f 110/203/110 13/204/13 20/205/20
f 110/203/110 20/205/20 78/206/78
f 110/203/110 78/206/78 111/207/111
f 110/203/110 111/207/111 21/26/21
f 112/208/112 3/3/3 90/152/90
f 112/208/112 90/152/90 48/54/48
f 112/208/112 48/54/48 49/55/49
f 112/208/112 49/55/49 4/4/4
f 112/208/112 4/4/4 3/3/3
f 113/209/113 4/156/4 91/153/91
f 113/209/113 91/153/91 26/31/26
f 113/209/113 26/31/26 28/33/28
f 113/209/113 28/33/28 29/34/29
f 113/209/113 29/34/29 50/210/50
f 113/209/113 50/210/50 4/156/4
f 114/211/114 31/144/31 30/131/30
f 114/211/114 30/131/30 63/130/63
f 114/211/114 63/130/63 40/45/40
f 114/211/114 40/45/40 39/44/39
f 114/211/114 39/44/39 31/144/31
f 115/212/115 23/28/23 22/27/22
f 115/212/115 22/27/22 84/167/84
f 115/212/115 84/167/84 94/166/94
f 115/212/115 94/166/94 23/28/23
f 116/213/116 89/151/89 57/65/57
f 116/213/116 57/65/57 105/193/105
f 116/213/116 105/193/105 69/149/69
f 116/213/116 69/149/69 89/151/89
f 117/214/117 86/140/86 83/133/83
f 117/214/117 83/133/83 80/134/80
f 117/214/117 80/134/80 36/41/36
f 117/214/117 36/41/36 38/43/38
f 117/214/117 38/43/38 86/140/86
f 118/215/118 96/174/96 54/61/54
f 118/215/118 54/61/54 55/62/55
f 118/215/118 55/62/55 97/175/97
f 118/215/118 97/175/97 96/174/96
f 119/216/119 22/27/22 53/123/53
f 119/216/119 53/123/53 27/32/27
f 119/216/119 27/32/27 84/167/84
f 119/216/119 84/167/84 22/27/22
f 120/217/120 21/51/21 111/218/111
f 120/217/120 111/218/111 78/159/78
f 120/217/120 78/159/78 95/173/95
f 120/217/120 95/173/95 97/175/97
f 120/217/120 97/175/97 45/50/45
f 120/217/120 45/50/45 21/51/21
f 121/219/121 105/193/105 57/65/57
f 121/219/121 57/65/57 51/58/51
f 121/219/121 51/58/51 54/61/54
f 121/219/121 54/61/54 105/193/105
f 122/220/122 69/149/69 105/193/105
f 122/220/122 105/193/105 71/165/71
f 122/220/122 71/165/71 99/221/99
f 122/220/122 99/221/99 67/222/67
f 122/220/122 67/222/67 69/149/69
f 123/223/123 9/9/9 8/8/8
f 123/223/123 8/8/8 48/54/48
f 123/223/123 48/54/48 90/152/90
f 123/223/123 90/152/90 9/9/9
f 124/224/124 27/32/27 26/31/26
f 124/224/124 26/31/26 82/225/82
f 124/224/124 82/225/82 30/35/30
f 124/224/124 30/35/30 32/37/32
f 124/224/124 32/37/32 84/167/84
f 124/224/124 84/167/84 27/32/27
f 125/226/125 2/2/2 1/1/1
f 125/226/125 1/1/1 57/65/57
f 125/226/125 57/65/57 89/151/89
f 125/226/125 89/151/89 2/2/2
