# Blender v3.6.10 OBJ File: 'ak105.blend'
# www.blender.org
o ammoModel
v -0.511334 -5.464099 -1.498653
v 0.516460 -5.545482 -1.419786
v 0.516809 -5.433584 -1.498653
v 0.491352 -2.228415 -1.442727
v 0.586418 -5.431519 -1.442727
v 0.426291 -2.230346 -1.498653
v -0.608764 -2.375248 -0.235912
v 0.414151 -2.344888 -0.236823
v -0.612150 -2.261167 -0.235912
v 0.410765 -2.230798 -0.236823
v 0.414152 -2.344888 -1.410757
v 0.410766 -2.230798 -1.410757
v -0.608764 -2.375248 -1.411669
v 0.586417 -5.431519 -0.204836
v 0.491351 -2.228415 -0.204836
v 0.426292 -2.230346 -0.148910
v 0.516808 -5.433584 -0.148927
v -0.592078 -5.466496 -0.235843
v -0.606400 -2.260996 -0.148910
v 0.516459 -5.545482 -0.227812
v -0.511334 -5.464099 -0.148910
v -0.687144 -2.263392 -0.235843
v -0.506122 -5.575832 -1.427301
v -0.506123 -5.575832 -0.220296
v -0.592076 -5.466496 -1.411754
v -0.612150 -2.261167 -1.411669
v -0.687142 -2.263392 -1.411754
v -0.606400 -2.260996 -1.498653
vt 0.573911 0.184011
vt 0.573911 0.191244
vt 0.509056 0.184011
vt 0.509056 0.191244
vt 0.068932 0.540730
vt 0.004655 0.540730
vt 0.068932 0.534481
vt 0.004655 0.534481
vt 0.494708 0.153364
vt 0.446909 0.153364
vt 0.494745 0.114047
vt 0.446871 0.114047
vt 0.004770 0.542184
vt 0.005049 0.354919
vt 0.001331 0.542180
vt 0.001611 0.354914
vt 0.007014 0.349343
vt 0.068300 0.354919
vt 0.067304 0.349566
vt 0.073267 0.354919
vt 0.073267 0.542184
vt 0.068300 0.542184
vt 0.007031 0.280653
vt 0.067304 0.280213
vt 0.073267 0.349840
vt 0.073267 0.281122
vt 0.004770 0.542184
vt 0.004770 0.354919
vt 0.068300 0.542184
vt 0.068021 0.354919
vt 0.004526 0.540816
vt 0.004525 0.534566
vt 0.068902 0.540816
vt 0.068902 0.534566
vt 0.574327 0.191317
vt 0.509471 0.191317
vt 0.574327 0.184083
vt 0.509471 0.184084
vt 0.239408 0.358366
vt 0.239408 0.537933
vt 0.173515 0.358366
vt 0.173515 0.537933
vt 0.507007 0.191510
vt 0.507007 0.012605
vt 0.576117 0.191510
vt 0.576117 0.012605
vt 0.508289 0.006362
vt 0.574835 0.006362
vt 0.068496 0.541376
vt 0.005235 0.541376
vt 0.068496 0.355456
vt 0.074295 0.541255
vt 0.073441 0.355456
vt 0.067504 0.348967
vt 0.007488 0.348967
vt 0.005514 0.355456
vt 0.001251 0.541376
vt 0.001251 0.355456
vt 0.499013 0.113744
vt 0.495373 0.113517
vt 0.495376 0.110554
vt 0.446172 0.113517
vt 0.446169 0.110554
vt 0.442532 0.113744
vt 0.446210 0.153924
vt 0.442532 0.154537
vt 0.444872 0.157107
vt 0.495335 0.153924
vt 0.496673 0.157107
vt 0.499013 0.154537
vn -0.0009 -0.0000 -1.0000
vn -0.9996 -0.0297 -0.0000
vn -0.0297 0.9996 0.0000
vn 0.2298 0.0063 0.9732
vn 0.4069 -0.2237 0.8857
vn 0.6387 0.0185 0.7692
vn 0.6125 -0.2383 0.7537
vn 0.2067 -0.5510 0.8085
vn -0.3347 -0.2548 0.9072
vn -0.5501 -0.6131 0.5671
vn -0.8785 -0.3804 0.2889
vn -0.9303 -0.0276 0.3657
vn -0.3994 -0.0119 0.9167
vn 0.0297 -0.9996 0.0000
vn -0.6407 -0.6392 -0.4253
vn -0.9244 -0.2496 -0.2885
vn 0.9996 0.0297 0.0000
vn -0.0009 -0.0000 1.0000
vn -0.8749 -0.0260 -0.4835
vn 0.9870 -0.1605 0.0000
vn 0.9360 -0.3519 -0.0000
vn 0.8522 -0.5232 0.0000
vn -0.3993 -0.0119 -0.9167
vn 0.2298 0.0065 -0.9732
vn -0.3346 -0.2547 -0.9073
vn 0.2067 -0.5509 -0.8086
vn 0.4069 -0.2236 -0.8857
vn 0.6388 0.0185 -0.7692
vn 0.6126 -0.2382 -0.7537
vn -0.0296 0.9996 -0.0001
vn -0.0296 0.9996 -0.0000
vn -0.0296 0.9996 0.0001
s 1
f 7/1/1 9/2/1 8/3/1
f 9/2/1 10/4/1 8/3/1
f 10/5/2 12/6/2 8/7/2
f 12/6/2 11/8/2 8/7/2
f 8/9/3 11/10/3 7/11/3
f 11/10/3 13/12/3 7/11/3
f 16/13/4 17/14/5 15/15/6
f 17/14/5 14/16/7 15/15/6
f 17/14/5 20/17/8 14/16/7
f 17/14/5 21/18/9 20/17/8
f 21/18/9 24/19/10 20/17/8
f 24/19/10 21/18/9 18/20/11
f 18/20/11 21/18/9 22/21/12
f 21/18/9 19/22/13 22/21/12
f 20/17/14 24/19/14 2/23/14
f 24/19/14 23/24/14 2/23/14
f 24/19/10 18/25/11 23/24/15
f 18/25/11 25/26/16 23/24/15
f 19/27/13 21/28/9 16/29/4
f 21/28/9 17/30/5 16/29/4
f 9/31/17 7/32/17 26/33/17
f 7/32/17 13/34/17 26/33/17
f 13/35/18 11/36/18 26/37/18
f 11/36/18 12/38/18 26/37/18
f 18/39/11 22/40/12 25/41/16
f 22/40/12 27/42/19 25/41/16
f 15/43/17 14/44/20 4/45/17
f 14/44/20 5/46/21 4/45/17
f 14/44/20 20/47/22 5/46/21
f 20/47/22 2/48/22 5/46/21
f 28/49/23 6/50/24 1/51/25
f 27/52/19 28/49/23 1/51/25
f 25/53/16 27/52/19 1/51/25
f 25/53/16 1/51/25 23/54/15
f 23/54/15 1/51/25 2/55/26
f 3/56/27 2/55/26 1/51/25
f 3/56/27 1/51/25 6/50/24
f 3/56/27 6/50/24 4/57/28
f 3/56/27 4/57/28 5/58/29
f 3/56/27 5/58/29 2/55/26
f 19/59/3 9/60/3 22/61/3
f 9/60/3 26/62/3 22/61/3
f 26/62/3 27/63/3 22/61/3
f 27/63/3 26/62/3 28/64/3
f 26/62/3 12/65/30 28/64/3
f 12/65/30 6/66/30 28/64/3
f 6/66/30 12/65/30 4/67/31
f 4/67/31 12/65/30 10/68/32
f 15/69/31 4/67/31 10/68/32
f 15/69/31 10/68/32 16/70/32
f 16/70/32 10/68/32 19/59/3
f 10/68/32 9/60/3 19/59/3
