# Blender v3.6.10 OBJ File: ''
# www.blender.org
o ammoModel
v -1.381441 -0.979633 -0.167143
v -1.417168 -0.943441 -0.181161
v -1.622359 -1.610655 -0.181161
v -1.420798 -0.711975 -0.181161
v -1.684316 -1.496733 -0.181161
v -1.262592 -0.974854 -0.093346
v -1.439401 -1.603092 -0.093346
v -1.244280 -0.974154 -0.101658
v -1.380844 -0.979649 -0.187367
v -2.402273 -0.665297 -0.150235
v -2.419920 -0.667013 -0.168352
v -2.419920 -0.667013 -0.150451
v -1.793393 -0.606330 -0.171769
v -1.793393 -0.606330 -0.153437
v -1.712270 -0.599553 -0.180996
v -1.712265 -0.599553 -0.199804
v -1.572737 -0.606223 -0.180996
v -1.572737 -0.606223 -0.199804
v -1.454816 -0.664127 -0.181161
v -1.454816 -0.664127 -0.199804
v -1.420798 -0.711975 -0.199804
v -1.417168 -0.943441 -0.199804
v -2.419920 -0.667013 0.242918
v -2.419920 -0.667013 0.225017
v -2.443030 -0.747823 0.225629
v -2.443030 -0.747823 0.274378
v -3.472126 -4.389001 -0.199804
v -2.443030 -0.747823 -0.151063
v -2.443030 -0.747823 -0.199804
v -3.472126 -4.389001 0.274379
v -2.434375 -0.651052 0.192253
v -2.442943 -0.583185 0.037287
v -2.434375 -0.651052 -0.117677
v -2.414938 -0.804897 -0.184483
v -2.414938 -0.804897 0.259058
v -2.395503 -0.958740 -0.117677
v -2.395503 -0.958740 0.192253
v -2.386926 -1.026605 0.037287
v -2.402273 -0.665297 0.224698
v -2.425332 -0.747143 0.225629
v -2.425332 -0.747143 -0.151063
v -2.324610 -0.793485 0.224714
v -2.341223 -0.662000 0.167843
v -2.396119 -0.646731 0.192416
v -2.376742 -0.800067 0.259084
v -2.357373 -0.953411 0.192416
v -2.348739 -1.021777 0.037287
v -2.308005 -0.924970 0.167843
v -2.300934 -0.980914 0.037287
v -2.357373 -0.953411 -0.117842
v -2.308005 -0.924970 -0.093268
v -2.376742 -0.800067 -0.184508
v -2.396119 -0.646731 -0.117842
v -2.404754 -0.578356 0.037287
v -2.324610 -0.793485 -0.150139
v -2.341223 -0.662000 -0.093268
v -2.348289 -0.606048 0.037287
v -2.424985 -0.756164 -0.180833
v -2.614759 -1.429078 -0.180833
v -2.614759 -1.429078 0.255477
v -2.425564 -0.741027 0.255477
v -2.279987 -0.629726 0.194212
v -2.260320 -0.785359 0.261811
v -2.240659 -0.941002 0.194212
v -2.231968 -1.009823 0.037287
v -1.462723 -0.684603 0.252560
v -1.443828 -0.834213 0.187635
v -1.435538 -0.899819 0.037287
v -2.240659 -0.941002 -0.119637
v -1.481627 -0.534993 0.187635
v -1.443828 -0.834213 -0.113060
v -1.462723 -0.684603 -0.177984
v -2.260320 -0.785359 -0.187237
v -2.279987 -0.629726 -0.119637
v -2.288682 -0.560904 0.037287
v -1.481627 -0.534993 -0.113060
v -1.489913 -0.469386 0.037287
v -1.601484 -0.713522 -0.199804
v -2.404532 -4.434771 -0.199804
v -2.226559 -4.457001 -0.101658
v -1.208309 -0.972611 0.037287
v -1.813291 -0.682892 -0.199804
v -2.094831 -4.473782 -0.199804
v -2.108500 -4.559519 -0.199804
v -2.189934 -4.462124 0.037287
v -2.226559 -4.457001 0.176225
v -1.233901 -0.927183 0.176225
v -1.304624 -0.832128 0.248900
v -2.404532 -4.434771 0.274379
v -1.364964 -0.750833 0.274378
v -1.601562 -0.713799 0.274378
v -1.454816 -0.664127 0.274378
v -1.572737 -0.606223 0.274378
v -1.712265 -0.599553 0.274378
v -1.813291 -0.682892 0.274378
v -1.793393 -0.606330 0.246344
v -2.094831 -4.473782 0.274379
v -2.108500 -4.559519 0.274379
v -2.008052 -4.484720 -0.099137
v -2.024077 -4.570052 -0.099137
v -1.989352 -4.574116 0.037287
v -1.973398 -4.489019 0.037287
v -2.008052 -4.484720 0.173704
v -2.024077 -4.570052 0.173704
v -1.758541 -0.699911 -0.180833
v -1.804226 -1.419087 -0.181161
v -1.726288 -1.465847 -0.181161
v -1.228337 -0.973379 0.037279
v -1.405146 -1.601617 0.037279
v -1.252216 -0.927882 0.167955
v -1.428621 -1.566523 0.167955
v -1.315016 -0.832531 0.230730
v -1.541768 -1.379071 0.255770
v -1.364964 -0.750833 0.255770
v -1.678412 -1.449669 0.255770
v -1.454816 -0.664127 0.255770
v -1.572737 -0.606223 0.255632
v -1.797936 -1.411353 0.255477
v -1.754295 -0.691546 0.255477
v -1.793393 -0.606330 0.228064
v -1.712270 -0.599553 0.255632
v -1.370613 -0.542914 0.164046
v -1.377443 -0.488828 0.037287
v -1.291368 -0.543532 0.037287
v -1.269827 -0.573219 0.117800
v -1.276146 -0.661034 0.154681
v -1.354439 -0.670922 0.219372
v -1.370613 -0.542914 -0.089470
v -1.269827 -0.573219 -0.043225
v -1.235661 -0.655922 0.037287
v -1.248187 -0.744518 0.117800
v -1.338266 -0.798932 0.164046
v -1.354439 -0.670922 -0.144797
v -1.276146 -0.661034 -0.080105
v -1.248187 -0.744518 -0.043224
v -1.261672 -0.778628 0.037287
v -1.331437 -0.853018 0.037287
v -1.338266 -0.798932 -0.089470
vt -3.004418 0.668551
vt -3.003612 0.674230
vt -3.003612 0.673891
vt -3.427216 0.189393
vt -3.420139 0.187550
vt -3.446194 0.185334
vt -3.429566 0.189603
vt -3.427824 0.191760
vt -3.428066 0.190851
vt -3.447679 0.194298
vt -3.004004 0.664342
vt -3.003256 0.668485
vt -3.005052 0.665492
vt -3.005390 0.786564
vt -3.004349 0.788521
vt -3.005377 0.781917
vt -3.004152 0.719068
vt -3.005206 0.719068
vt -3.003622 0.710080
vt -3.002541 0.710080
vt -3.003622 0.694699
vt -3.002541 0.694699
vt -3.003612 0.681920
vt -3.002541 0.681920
vt -3.003612 0.678367
vt -3.002541 0.678367
vt -3.002541 0.674230
vt -3.414413 0.377101
vt -3.413231 0.377101
vt -3.413356 0.371850
vt -3.416595 0.371851
vt -3.385173 0.120430
vt -3.388327 0.371842
vt -3.385088 0.371840
vt -3.388444 0.377101
vt -3.387263 0.377101
vt -3.416679 0.120440
vt -3.029004 0.506570
vt -3.048352 0.515111
vt -3.067700 0.506570
vt -3.076040 0.487210
vt -3.020664 0.487210
vt -3.067700 0.467850
vt -3.029004 0.467850
vt -3.048352 0.459310
vt -1.150995 -2.467250
vt -1.151340 -2.473257
vt -1.151021 -2.482512
vt -1.150542 -2.476273
vt -0.992897 -2.491058
vt -0.992419 -2.484819
vt -0.993953 -2.481763
vt -0.993382 -2.475768
vt -3.123972 0.366290
vt -3.141425 0.365949
vt -3.141414 0.360394
vt -3.124225 0.360791
vt -3.141390 0.356365
vt -3.124135 0.356763
vt -3.108154 0.357161
vt -3.108251 0.361188
vt -3.092936 0.361365
vt -3.092936 0.357337
vt -3.107918 0.366630
vt -3.092936 0.366775
vt -3.077621 0.361188
vt -3.077718 0.357161
vt -3.077953 0.366630
vt -3.061646 0.360791
vt -3.061736 0.356763
vt -3.044457 0.360394
vt -3.044481 0.356365
vt -3.025918 0.360204
vt -3.025974 0.356189
vt -3.061900 0.366290
vt -3.044446 0.365949
vt -3.025918 0.365792
vt -3.007390 0.365924
vt -3.007435 0.360381
vt -3.007467 0.356365
vt -3.455829 0.243955
vt -3.453276 0.241770
vt -3.453345 0.243955
vt -3.455829 0.261939
vt -3.419412 0.261939
vt -3.421903 0.243955
vt -3.419412 0.243955
vt -3.421980 0.241770
vt -3.141701 0.372668
vt -3.124523 0.373071
vt -3.108406 0.373474
vt -3.092936 0.373652
vt -3.126390 0.457198
vt -3.109628 0.457585
vt -3.092936 0.457755
vt -3.077465 0.373474
vt -3.143167 0.456810
vt -3.076243 0.457585
vt -3.059482 0.457198
vt -3.061349 0.373071
vt -3.044171 0.372668
vt -3.025918 0.372477
vt -3.007665 0.372642
vt -3.042705 0.456810
vt -3.025974 0.456640
vt -3.009244 0.456810
vt -3.320369 0.392584
vt -3.331994 0.396604
vt -3.323407 0.395030
vt -3.331895 0.389224
vt -3.315959 0.377848
vt -3.316079 0.136773
vt -3.312880 0.376188
vt -3.310363 0.376975
vt -3.302612 0.138557
vt -3.292940 0.379739
vt -3.340846 0.394372
vt -3.345992 0.387359
vt -3.295571 0.138247
vt -3.294898 0.130528
vt -3.346227 0.392930
vt -3.385219 0.377802
vt -3.293064 0.138883
vt -3.283517 0.138547
vt -3.283386 0.382180
vt -3.275498 0.386983
vt -3.270051 0.136756
vt -3.269908 0.391090
vt -3.254112 0.389179
vt -3.262596 0.395009
vt -3.254009 0.396579
vt -3.245158 0.394343
vt -3.240015 0.387327
vt -3.239778 0.392899
vt -3.200793 0.377751
vt -3.200965 0.120379
vt -3.200926 0.371790
vt -3.290557 0.138240
vt -3.291234 0.130522
vt -3.453050 0.266583
vt -3.453050 0.272461
vt -3.446100 0.271476
vt -3.446100 0.265632
vt -3.436682 0.265260
vt -3.436682 0.271088
vt -3.427264 0.271476
vt -3.427264 0.265632
vt -3.420314 0.266583
vt -3.420314 0.272461
vt -3.419571 0.175287
vt -3.425897 0.157030
vt -3.429008 0.157064
vt -3.422296 0.177095
vt -3.451079 0.156274
vt -3.444708 0.181073
vt -3.418031 0.182096
vt -3.445560 0.183815
vt -3.418870 0.177764
vt -3.418926 0.186148
vt -3.426928 0.199443
vt -3.447525 0.198562
vt -3.425933 0.203765
vt -3.446841 0.202845
vt -3.423708 0.207228
vt -3.442350 0.208791
vt -3.421753 0.209667
vt -3.445814 0.212198
vt -3.420035 0.213218
vt -3.419457 0.217327
vt -3.445840 0.216162
vt -3.423806 0.221937
vt -3.454412 0.240505
vt -3.431897 0.241598
vt -3.429218 0.241718
vt -3.421512 0.223999
vt -3.420652 0.221424
vt -3.016169 0.651616
vt -3.016169 0.649400
vt -3.023680 0.654059
vt -3.024156 0.652034
vt -3.027288 0.660591
vt -3.028333 0.659441
vt -3.029798 0.665761
vt -3.028728 0.665761
vt -3.028728 0.675316
vt -3.029798 0.675316
vt -3.028719 0.688094
vt -3.029798 0.688094
vt -3.029798 0.703475
vt -3.028719 0.703475
vt -3.028186 0.712464
vt -3.027135 0.712464
vt -3.027989 0.781917
vt -3.026942 0.779960
vt -3.026960 0.781917
vt -3.445488 0.275008
vt -3.452136 0.280707
vt -3.452136 0.301042
vt -3.445655 0.289356
vt -3.436481 0.272732
vt -3.436481 0.286952
vt -3.427306 0.289356
vt -3.427472 0.275008
vt -3.420825 0.301042
vt -3.420825 0.280707
vt -3.452136 0.393137
vt -3.452136 0.303595
vt -3.445488 0.298051
vt -3.436481 0.295770
vt -3.420825 0.393137
vt -3.427472 0.298051
vt -3.420825 0.303595
vt -3.112571 0.528201
vt -3.136525 0.517880
vt -3.127919 0.509468
vt -3.112572 0.516370
vt -3.112573 0.506400
vt -3.119615 0.501554
vt -3.125114 0.493874
vt -3.135023 0.493863
vt -3.146827 0.493863
vt -3.136533 0.469840
vt -3.097227 0.509466
vt -3.105532 0.501554
vt -3.112574 0.493799
vt -3.119629 0.486154
vt -3.127925 0.478249
vt -3.112576 0.459496
vt -3.088619 0.517877
vt -3.090125 0.493860
vt -3.100034 0.493873
vt -3.105519 0.486153
vt -3.112574 0.481236
vt -3.112575 0.471313
vt -3.097225 0.478247
vt -3.088618 0.469837
vt -3.078320 0.493858
vn -0.4089 0.1360 0.9024
vn -0.0961 0.0296 0.9949
vn -0.3184 0.1003 0.9426
vn -0.0000 0.0000 1.0000
vn -0.6787 0.2032 0.7057
vn -0.8342 0.2348 0.4990
vn -0.0388 0.9992 -0.0014
vn -0.0390 0.9992 -0.0019
vn -0.0389 0.9992 -0.0015
vn -0.0965 0.9953 -0.0003
vn -0.0966 0.9953 -0.0002
vn -0.0968 0.9953 0.0000
vn -0.0897 0.9960 -0.0001
vn -0.0899 0.9959 0.0000
vn -0.0397 0.9992 -0.0000
vn 0.0040 1.0000 0.0000
vn 0.1821 0.9833 -0.0000
vn 0.3156 0.9489 0.0001
vn 0.5813 0.8137 0.0000
vn 0.7095 0.7047 -0.0000
vn 0.9131 0.4078 -0.0000
vn 0.9773 0.2121 0.0000
vn 0.9208 0.3901 0.0055
vn 0.9205 0.3907 -0.0000
vn 0.7068 0.7073 0.0102
vn 0.7076 0.7063 0.0203
vn -0.9615 0.2750 0.0000
vn -0.9619 0.2735 0.0000
vn -0.9621 0.2728 0.0000
vn -0.9623 0.2720 0.0000
vn -0.9620 0.2730 0.0000
vn -0.9618 0.2738 -0.0000
vn -0.9921 -0.1253 0.0000
vn -0.9921 -0.1254 0.0000
vn -0.0086 -0.0071 -0.9999
vn -0.0174 -0.0065 -0.9998
vn 0.0003 -0.0077 -1.0000
vn -0.0384 0.9993 0.0000
vn -0.0057 -0.0072 1.0000
vn 0.0004 -0.0102 0.9999
vn -0.0057 -0.0073 1.0000
vn -0.0118 -0.0042 0.9999
vn 0.5412 0.0684 0.8381
vn 0.4445 0.7312 0.5174
vn 0.1954 0.7119 0.6746
vn 0.1913 0.0242 0.9812
vn -0.0721 0.6016 0.7955
vn -0.0007 -0.0001 1.0000
vn 0.0912 -0.6977 0.7105
vn 0.4538 -0.6012 0.6577
vn 0.3186 -0.9479 -0.0000
vn 0.1254 -0.9921 -0.0000
vn 0.6022 -0.5283 0.5985
vn 0.6399 -0.7684 -0.0000
vn 0.4238 -0.6629 -0.6172
vn 0.0911 -0.6977 -0.7106
vn 0.5925 -0.4451 -0.6714
vn 0.3330 -0.0215 -0.9427
vn -0.0184 0.1411 -0.9898
vn 0.1967 0.6993 -0.6872
vn -0.0933 0.7842 -0.6135
vn 0.1663 0.9860 -0.0112
vn -0.1204 0.9819 0.1464
vn 0.5431 0.0686 -0.8369
vn 0.4631 0.5785 -0.6715
vn 0.4292 0.8946 -0.1243
vn 0.9582 -0.2705 0.0931
vn 0.9581 -0.2709 0.0932
vn 0.9619 -0.2694 0.0466
vn 0.9619 -0.2693 0.0466
vn 0.9635 -0.2667 0.0206
vn 0.9626 -0.2676 0.0417
vn 0.9616 -0.2673 0.0623
vn 0.9608 -0.2700 0.0628
vn -0.5037 0.0612 0.8617
vn -0.3324 0.6460 0.6872
vn -0.5580 0.5532 0.6186
vn -0.2926 -0.1151 0.9493
vn -0.4080 -0.6717 0.6184
vn -0.0721 -0.7097 0.7008
vn -0.2164 -0.9763 -0.0000
vn -0.3866 -0.9223 -0.0000
vn -0.3940 -0.7477 -0.5345
vn 0.1051 0.0133 0.9944
vn 0.2546 -0.6100 0.7503
vn 0.2742 -0.9617 -0.0000
vn -0.1275 -0.6724 -0.7291
vn -0.4914 -0.0621 -0.8687
vn 0.0949 0.6542 0.7503
vn 0.2546 -0.6100 -0.7503
vn 0.1342 -0.0702 -0.9885
vn -0.2097 0.0623 -0.9758
vn -0.3323 0.6510 -0.6825
vn -0.5675 0.6262 -0.5345
vn -0.4205 0.9039 -0.0786
vn -0.5939 0.7943 0.1276
vn 0.0733 0.6133 -0.7865
vn 0.0265 0.9996 0.0000
vn -0.0000 -0.0000 -1.0000
vn 0.0866 -0.0244 -0.9959
vn 0.2153 -0.0615 -0.9746
vn 0.3984 -0.1147 -0.9100
vn 0.6902 -0.1963 -0.6965
vn 0.8380 -0.2360 -0.4920
vn 0.9626 -0.2710 0.0046
vn -0.1134 0.1375 -0.9840
vn -0.0751 0.1543 -0.9852
vn -0.1369 0.3783 -0.9155
vn -0.0262 0.2452 -0.9691
vn -0.0411 0.3726 -0.9271
vn 0.9626 -0.2708 0.0000
vn 0.7817 -0.2204 0.5835
vn 0.8022 -0.2256 0.5528
vn 0.4535 -0.1293 0.8818
vn 0.1547 -0.0446 0.9870
vn 0.0983 -0.0277 0.9948
vn -0.1134 0.1375 0.9840
vn -0.0696 0.1923 0.9789
vn -0.1864 0.3801 0.9060
vn -0.0388 0.3623 0.9312
vn -0.0195 0.1895 0.9817
vn 0.7485 -0.1300 -0.6503
vn 0.7456 -0.1189 -0.6557
vn 0.8731 -0.1585 -0.4610
vn 0.8738 -0.1641 -0.4578
vn 0.9829 -0.1844 0.0000
vn 0.9829 -0.1843 0.0000
vn 0.8732 -0.1585 0.4610
vn 0.8738 -0.1640 0.4579
vn 0.7485 -0.1300 0.6503
vn 0.7457 -0.1189 0.6556
vn 0.1314 -0.2534 0.9584
vn 0.0366 -0.3271 0.9443
vn 0.0201 -0.2022 0.9791
vn 0.0598 -0.0713 0.9957
vn 0.0002 -0.0003 1.0000
vn 0.0009 -0.0001 1.0000
vn 0.0000 -0.0001 1.0000
vn 0.1675 -0.0757 0.9830
vn 0.0008 -0.0003 1.0000
vn -0.9598 0.2702 0.0765
vn -0.9593 0.2684 -0.0879
vn -0.8558 0.2381 -0.4592
vn -0.6968 0.2001 -0.6888
vn -0.4491 0.1318 -0.8837
vn -0.2619 0.0802 -0.9618
vn -0.1092 0.0308 -0.9935
vn 0.0011 -0.0002 -1.0000
vn 0.0006 -0.0002 -1.0000
vn 0.0009 0.0001 -1.0000
vn 0.0571 -0.1198 -0.9912
vn 0.0144 -0.1957 -0.9806
vn 0.0309 -0.3384 -0.9405
vn 0.1840 -0.2235 -0.9572
vn 0.1676 -0.0749 -0.9830
vn -0.0381 0.9928 -0.1137
vn 0.0074 0.9771 -0.2125
vn 0.1215 0.8801 -0.4590
vn 0.3442 0.8115 -0.4722
vn 0.6389 0.6659 -0.3853
vn 0.6361 0.6722 -0.3788
vn 0.7443 0.6601 -0.1018
vn 0.7801 0.6256 0.0000
vn 0.6164 0.7874 -0.0000
vn 0.5310 0.8474 -0.0000
vn 0.2494 0.9684 -0.0000
vn -0.0877 0.9961 0.0000
vn -0.0921 0.9958 0.0001
vn -0.0966 0.9953 0.0002
vn -0.0965 0.9953 0.0003
vn 0.1257 0.9921 -0.0008
vn 0.1250 0.9922 0.0001
vn 0.1254 0.9921 -0.0018
vn 0.1250 0.9922 -0.0001
vn 0.1249 0.9922 0.0000
vn 0.1233 0.9924 -0.0000
vn 0.1257 0.9921 0.0008
vn 0.1254 0.9921 0.0018
vn -0.1240 -0.9923 0.0008
vn -0.1241 -0.9923 0.0002
vn -0.1242 -0.9923 0.0015
vn -0.1242 -0.9923 -0.0000
vn -0.1240 -0.9923 -0.0008
vn -0.1242 -0.9923 -0.0015
vn -0.1241 -0.9923 -0.0002
vn 0.3783 0.7187 0.5834
vn 0.3628 0.9319 -0.0000
vn 0.6388 0.7693 -0.0000
vn 0.7786 0.4999 0.3793
vn 0.7305 0.0923 0.6766
vn 0.4105 0.0519 0.9104
vn 0.3783 0.7187 -0.5834
vn 0.7786 0.4999 -0.3793
vn 0.9921 0.1253 -0.0000
vn 0.8785 -0.2906 0.3793
vn 0.5451 -0.6021 0.5834
vn 0.4105 0.0519 -0.9104
vn 0.7305 0.0923 -0.6766
vn 0.8785 -0.2906 -0.3793
vn 0.8101 -0.5863 -0.0000
vn 0.5831 -0.8124 -0.0000
vn 0.5451 -0.6021 -0.5834
s 1
f 1/1/1 2/2/2 3/3/3
f 2/4/2 4/5/4 5/6/4
f 2/4/2 5/6/4 3/7/3
f 6/8/5 1/9/1 3/7/3
f 6/8/5 3/7/3 7/10/6
f 8/11/7 9/12/8 1/1/8
f 8/11/7 1/1/8 6/13/9
f 10/14/10 11/15/11 12/16/12
f 13/17/13 11/15/11 10/14/10
f 13/17/13 10/14/10 14/18/14
f 13/17/13 14/18/14 15/19/15
f 16/20/16 13/17/13 15/19/15
f 16/20/16 15/19/15 17/21/17
f 18/22/18 16/20/16 17/21/17
f 18/22/18 17/21/17 19/23/19
f 20/24/20 18/22/18 19/23/19
f 20/24/20 19/23/19 4/25/21
f 21/26/22 20/24/20 4/25/21
f 21/26/22 4/25/21 2/2/23
f 22/27/24 21/26/22 2/2/23
f 9/12/25 22/27/24 2/2/23
f 9/12/25 2/2/23 1/1/26
f 23/28/27 24/29/27 25/30/28
f 26/31/29 23/28/27 25/30/28
f 27/32/30 26/31/29 25/30/28
f 27/32/30 25/30/28 28/33/31
f 29/34/32 27/32/30 28/33/31
f 29/34/32 28/33/31 12/35/27
f 11/36/27 29/34/32 12/35/27
f 27/32/30 30/37/30 26/31/29
f 31/38/33 32/39/33 33/40/33
f 31/38/33 33/40/33 34/41/33
f 35/42/33 31/38/33 34/41/33
f 35/42/33 34/41/33 36/43/33
f 37/44/33 35/42/33 36/43/33
f 37/44/33 36/43/33 38/45/34
f 24/46/35 39/47/36 40/48/35
f 25/49/37 24/46/35 40/48/35
f 25/49/38 40/48/38 41/50/38
f 28/51/38 25/49/38 41/50/38
f 28/51/39 41/50/40 10/52/41
f 12/53/42 28/51/39 10/52/41
f 42/54/43 43/55/44 44/56/45
f 42/54/43 44/56/45 45/57/46
f 31/58/47 45/57/46 44/56/45
f 31/58/47 35/59/48 45/57/46
f 35/59/48 37/60/49 45/57/46
f 46/61/50 45/57/46 37/60/49
f 47/62/51 46/61/50 37/60/49
f 47/62/51 37/60/49 38/63/52
f 46/61/50 42/54/43 45/57/46
f 42/54/43 46/61/50 48/64/53
f 46/61/50 49/65/54 48/64/53
f 46/61/50 47/62/51 49/65/54
f 47/62/51 50/66/55 49/65/54
f 50/66/55 47/62/51 36/67/56
f 47/62/51 38/63/52 36/67/56
f 50/66/55 51/68/57 49/65/54
f 51/68/57 50/66/55 52/69/58
f 50/66/55 36/67/56 52/69/58
f 52/69/58 36/67/56 34/70/59
f 53/71/60 52/69/58 34/70/59
f 53/71/60 34/70/59 33/72/61
f 54/73/62 53/71/60 33/72/61
f 54/73/62 33/72/61 32/74/63
f 55/75/64 51/68/57 52/69/58
f 56/76/65 55/75/64 52/69/58
f 56/76/65 52/69/58 53/71/60
f 57/77/66 56/76/65 53/71/60
f 57/77/66 53/71/60 54/73/62
f 43/78/44 57/77/66 54/73/62
f 44/79/45 43/78/44 54/73/62
f 44/79/45 54/73/62 32/74/63
f 31/80/47 44/79/45 32/74/63
f 58/81/67 10/82/68 41/83/69
f 59/84/70 58/81/67 41/83/69
f 60/85/71 59/84/70 41/83/69
f 60/85/71 41/83/69 40/86/72
f 61/87/73 60/85/71 40/86/72
f 61/87/73 40/86/72 39/88/74
f 42/54/75 62/89/76 43/55/77
f 63/90/78 62/89/76 42/54/75
f 63/90/78 42/54/75 48/64/79
f 64/91/80 63/90/78 48/64/79
f 64/91/80 48/64/79 65/92/81
f 65/92/81 48/64/79 49/65/82
f 65/92/81 49/65/82 51/68/83
f 63/90/78 66/93/84 62/89/76
f 64/91/80 66/93/84 63/90/78
f 64/91/80 67/94/85 66/93/84
f 64/91/80 68/95/86 67/94/85
f 68/95/86 64/91/80 65/92/81
f 68/95/86 65/92/81 69/96/87
f 69/96/87 65/92/81 51/68/83
f 69/96/87 51/68/83 55/75/88
f 66/93/84 70/97/89 62/89/76
f 71/98/90 68/95/86 69/96/87
f 72/99/91 71/98/90 69/96/87
f 72/99/91 69/96/87 73/100/92
f 73/100/92 69/96/87 55/75/88
f 74/101/93 73/100/92 55/75/88
f 74/101/93 55/75/88 56/76/94
f 75/102/95 74/101/93 56/76/94
f 75/102/95 56/76/94 57/77/96
f 62/103/76 75/102/95 57/77/96
f 43/78/77 62/103/76 57/77/96
f 76/104/97 72/99/91 73/100/92
f 76/104/97 73/100/92 74/101/93
f 77/105/98 76/104/97 74/101/93
f 77/105/98 74/101/93 75/102/95
f 62/103/76 77/105/98 75/102/95
f 77/105/98 62/103/76 70/106/89
f 21/107/99 18/108/99 20/109/99
f 78/110/99 18/108/99 21/107/99
f 78/110/99 21/107/99 22/111/100
f 79/112/101 78/110/99 22/111/100
f 79/112/101 22/111/100 9/113/102
f 79/112/101 9/113/102 8/114/103
f 80/115/104 79/112/101 8/114/103
f 80/115/104 8/114/103 81/116/105
f 78/110/99 16/117/106 18/108/99
f 16/117/106 78/110/99 82/118/107
f 78/110/99 27/32/99 82/118/107
f 78/110/99 79/112/101 27/32/99
f 79/112/101 83/119/99 27/32/99
f 83/119/99 84/120/99 27/32/99
f 13/121/108 16/117/106 82/118/107
f 13/121/108 82/118/107 29/34/109
f 27/32/99 29/34/109 82/118/107
f 11/122/110 13/121/108 29/34/109
f 85/123/111 80/115/104 81/116/105
f 86/124/112 85/123/111 81/116/105
f 86/124/112 81/116/105 87/125/113
f 86/124/112 87/125/113 88/126/114
f 89/127/115 86/124/112 88/126/114
f 89/127/115 88/126/114 90/128/116
f 91/129/4 89/127/115 90/128/116
f 91/129/4 90/128/116 92/130/4
f 91/129/4 92/130/4 93/131/4
f 91/129/4 93/131/4 94/132/117
f 95/133/118 91/129/4 94/132/117
f 95/133/118 94/132/117 96/134/119
f 95/133/118 96/134/119 23/135/120
f 89/127/115 91/129/4 30/136/4
f 91/129/4 95/133/118 30/136/4
f 95/133/118 26/137/121 30/136/4
f 95/133/118 23/135/120 26/137/121
f 97/138/4 89/127/115 30/136/4
f 97/138/4 30/136/4 98/139/4
f 84/140/122 83/141/123 99/142/124
f 100/143/125 84/140/122 99/142/124
f 101/144/126 100/143/125 99/142/124
f 101/144/126 99/142/124 102/145/127
f 101/144/126 102/145/127 103/146/128
f 104/147/129 101/144/126 103/146/128
f 98/148/130 104/147/129 103/146/128
f 98/148/130 103/146/128 97/149/131
f 14/150/132 10/151/133 58/152/134
f 105/153/135 14/150/132 58/152/134
f 105/153/135 58/152/134 59/154/136
f 105/153/135 59/154/136 106/155/136
f 17/156/137 105/153/135 106/155/136
f 17/156/137 106/155/136 107/157/138
f 105/153/135 15/158/139 14/150/132
f 105/153/135 17/156/137 15/158/139
f 19/159/140 17/156/137 107/157/138
f 4/5/4 19/159/140 107/157/138
f 4/5/4 107/157/138 5/6/4
f 108/160/141 6/8/5 7/10/6
f 108/160/141 7/10/6 109/161/142
f 110/162/143 108/160/141 109/161/142
f 110/162/143 109/161/142 111/163/144
f 112/164/145 110/162/143 111/163/144
f 112/164/145 111/163/144 113/165/146
f 114/166/147 112/164/145 113/165/146
f 114/166/147 113/165/146 115/167/148
f 116/168/149 114/166/147 115/167/148
f 117/169/150 116/168/149 115/167/148
f 117/169/150 115/167/148 118/170/148
f 119/171/151 117/169/150 118/170/148
f 119/171/151 118/170/148 60/172/99
f 119/171/151 60/172/99 61/173/152
f 119/171/151 61/173/152 39/174/153
f 119/171/151 39/174/153 120/175/154
f 119/171/151 120/175/154 121/176/155
f 117/169/150 119/171/151 121/176/155
f 8/11/7 6/13/9 108/177/156
f 81/178/157 8/11/7 108/177/156
f 81/178/157 108/177/156 110/179/158
f 87/180/159 81/178/157 110/179/158
f 87/180/159 110/179/158 112/181/160
f 88/182/161 87/180/159 112/181/160
f 90/183/162 88/182/161 112/181/160
f 90/183/162 112/181/160 114/184/163
f 90/183/162 114/184/163 116/185/164
f 92/186/165 90/183/162 116/185/164
f 92/186/165 116/185/164 117/187/166
f 93/188/166 92/186/165 117/187/166
f 94/189/16 93/188/166 117/187/166
f 94/189/16 117/187/166 121/190/15
f 96/191/167 94/189/16 121/190/15
f 96/191/167 121/190/15 120/192/168
f 23/193/169 96/191/167 120/192/168
f 23/193/169 120/192/168 39/194/170
f 24/195/12 23/193/169 39/194/170
f 99/196/171 83/197/172 79/198/173
f 99/196/171 79/198/173 80/199/174
f 102/200/175 99/196/171 80/199/174
f 102/200/175 80/199/174 85/201/176
f 102/200/175 85/201/176 86/202/172
f 103/203/177 102/200/175 86/202/172
f 103/203/177 86/202/172 89/204/178
f 97/205/174 103/203/177 89/204/178
f 27/206/179 84/207/180 100/208/181
f 27/206/179 100/208/181 101/209/182
f 30/210/183 27/206/179 101/209/182
f 30/210/183 101/209/182 104/211/184
f 98/212/185 30/210/183 104/211/184
f 77/213/98 70/214/89 122/215/186
f 77/213/98 122/215/186 123/216/187
f 123/216/187 122/215/186 124/217/188
f 122/215/186 125/218/189 124/217/188
f 122/215/186 126/219/190 125/218/189
f 127/220/191 126/219/190 122/215/186
f 70/214/89 127/220/191 122/215/186
f 127/220/191 70/214/89 66/221/84
f 127/220/191 66/221/84 67/222/85
f 128/223/192 77/213/98 123/216/187
f 128/223/192 123/216/187 124/217/188
f 129/224/193 128/223/192 124/217/188
f 129/224/193 124/217/188 130/225/194
f 125/218/189 130/225/194 124/217/188
f 126/219/190 130/225/194 125/218/189
f 126/219/190 131/226/195 130/225/194
f 132/227/196 131/226/195 126/219/190
f 127/220/191 132/227/196 126/219/190
f 132/227/196 127/220/191 67/222/85
f 132/227/196 67/222/85 68/228/86
f 77/213/98 128/223/192 76/229/97
f 76/229/97 128/223/192 133/230/197
f 128/223/192 134/231/198 133/230/197
f 128/223/192 129/224/193 134/231/198
f 129/224/193 130/225/194 134/231/198
f 135/232/199 134/231/198 130/225/194
f 136/233/200 135/232/199 130/225/194
f 136/233/200 130/225/194 131/226/195
f 132/227/196 136/233/200 131/226/195
f 136/233/200 132/227/196 137/234/201
f 132/227/196 68/228/86 137/234/201
f 68/228/86 138/235/202 137/234/201
f 68/228/86 71/236/90 138/235/202
f 72/237/91 76/229/97 133/230/197
f 71/236/90 72/237/91 133/230/197
f 71/236/90 133/230/197 138/235/202
f 134/231/198 138/235/202 133/230/197
f 134/231/198 135/232/199 138/235/202
f 135/232/199 136/233/200 138/235/202
f 136/233/200 137/234/201 138/235/202
